<svg width="50px" height="50px" viewBox="0 0 50 50" fill="none" xmlns="http://www.w3.org/2000/svg">
    <g id="aiPlatformSvgrepoCom">
        <defs>

            <style>
                .cls-1 {
                    fill: #4285f4;
                }

                .cls-1,
                .cls-2 {
                    fill-rule: evenodd;
                }

                .cls-2 {
                    fill: #669df6;
                }
            </style>

        </defs>

        <title>Icon_24px_MLEngine_Color</title>

        <g data-name="Product Icons">

            <g>

                <polygon class="cls-1"
                    points="16.64 15.13 17.38 13.88 20.91 13.88 22 12 19.82 8.25 16.75 8.25 15.69 6.39 14.5 6.39 14.5 5.13 16.44 5.13 17.5 7 19.09 7 16.9 3.25 12.63 3.25 12.63 8.25 14.36 8.25 15.09 9.5 12.63 9.5 12.63 12 14.89 12 15.94 10.13 18.75 10.13 19.47 11.38 16.67 11.38 15.62 13.25 12.63 13.25 12.63 17.63 16.03 17.63 15.31 18.88 12.63 18.88 12.63 20.75 16.9 20.75 20.18 15.13 18.09 15.13 17.36 16.38 14.5 16.38 14.5 15.13 16.64 15.13" />

                <polygon class="cls-2"
                    points="7.36 15.13 6.62 13.88 3.09 13.88 2 12 4.18 8.25 7.25 8.25 8.31 6.39 9.5 6.39 9.5 5.13 7.56 5.13 6.5 7 4.91 7 7.1 3.25 11.38 3.25 11.38 8.25 9.64 8.25 8.91 9.5 11.38 9.5 11.38 12 9.11 12 8.06 10.13 5.25 10.13 4.53 11.38 7.33 11.38 8.38 13.25 11.38 13.25 11.38 17.63 7.97 17.63 8.69 18.88 11.38 18.88 11.38 20.75 7.1 20.75 3.82 15.13 5.91 15.13 6.64 16.38 9.5 16.38 9.5 15.13 7.36 15.13" />

            </g>

        </g>
    </g>

    <g id="bemSvgrepoCom">
        <g fill="#010101">
            <path
                d="M0,32.6915521 L59.8506876,32.6915521 L59.8506876,50.2946955 L0,50.2946955 L0,32.6915521 Z M0,0 L59.8506876,0 L59.8506876,17.6031434 L0,17.6031434 L0,0 Z M107.379175,65.1316306 L0,65.1316306 L0,82.7347741 L103.355599,82.7347741 C114.671906,82.7347741 141.076621,82.9862475 150.884086,98.8290766 L150.884086,89.021611 C146.10609,73.4302554 132.023576,65.1316306 107.379175,65.1316306 L107.379175,65.1316306 Z M107.630648,97.8231827 L1.42108547e-14,97.8231827 L1.42108547e-14,115.426326 L103.355599,115.426326 C128.502947,115.426326 144.345776,116.43222 150.884086,119.952849 L150.884086,112.157171 C145.854617,99.8349705 124.730845,97.8231827 107.630648,97.8231827 L107.630648,97.8231827 Z M107.379175,180.80943 L0,180.80943 L0,163.206287 L103.355599,163.206287 C114.671906,163.206287 141.076621,162.954813 150.884086,147.111984 L150.884086,156.91945 C146.10609,172.510806 132.023576,180.80943 107.379175,180.80943 L107.379175,180.80943 Z M107.630648,148.117878 L1.42108547e-14,148.117878 L1.42108547e-14,130.514735 L103.355599,130.514735 C128.502947,130.514735 144.345776,129.508841 150.884086,125.988212 L150.884086,133.78389 C145.854617,146.10609 124.730845,148.117878 107.630648,148.117878 L107.630648,148.117878 Z M177.037328,211.237721 L256,211.237721 L256,200.424361 L179.300589,200.424361 C172.510806,200.424361 156.416503,200.172888 150.632613,190.868369 L150.632613,196.903733 C153.398821,206.208251 161.948919,211.237721 177.037328,211.237721 L177.037328,211.237721 Z M176.785855,191.371316 L255.748527,191.371316 L255.748527,180.557957 L179.300589,180.557957 C163.960707,180.557957 154.404715,180.05501 150.632613,177.791749 L150.632613,182.569745 C153.650295,190.113949 166.475442,191.371316 176.785855,191.371316 L176.785855,191.371316 Z">

            </path>
        </g>
    </g>

//Css svg
    <g id="css3SvgrepoCom">
        <path d="M6 28L4 3H28L26 28L16 31L6 28Z" fill="#1172B8" />
        <path d="M26 5H16V29.5L24 27L26 5Z" fill="#33AADD" />
        <path
            d="M19.5 17.5H9.5L9 14L17 11.5H9L8.5 8.5H24L23.5 12L17 14.5H23L22 24L16 26L10 24L9.5 19H12.5L13 21.5L16 22.5L19 21.5L19.5 17.5Z"
            fill="white" />
    </g>

    <g id="githubSvgrepoCom">
        <title>github</title>
        <path
            d="M16 1.375c-8.282 0-14.996 6.714-14.996 14.996 0 6.585 4.245 12.18 10.148 14.195l0.106 0.031c0.75 0.141 1.025-0.322 1.025-0.721 0-0.356-0.012-1.3-0.019-2.549-4.171 0.905-5.051-2.012-5.051-2.012-0.288-0.925-0.878-1.685-1.653-2.184l-0.016-0.009c-1.358-0.93 0.105-0.911 0.105-0.911 0.987 0.139 1.814 0.718 2.289 1.53l0.008 0.015c0.554 0.995 1.6 1.657 2.801 1.657 0.576 0 1.116-0.152 1.582-0.419l-0.016 0.008c0.072-0.791 0.421-1.489 0.949-2.005l0.001-0.001c-3.33-0.375-6.831-1.665-6.831-7.41-0-0.027-0.001-0.058-0.001-0.089 0-1.521 0.587-2.905 1.547-3.938l-0.003 0.004c-0.203-0.542-0.321-1.168-0.321-1.821 0-0.777 0.166-1.516 0.465-2.182l-0.014 0.034s1.256-0.402 4.124 1.537c1.124-0.321 2.415-0.506 3.749-0.506s2.625 0.185 3.849 0.53l-0.1-0.024c2.849-1.939 4.105-1.537 4.105-1.537 0.285 0.642 0.451 1.39 0.451 2.177 0 0.642-0.11 1.258-0.313 1.83l0.012-0.038c0.953 1.032 1.538 2.416 1.538 3.937 0 0.031-0 0.061-0.001 0.091l0-0.005c0 5.761-3.505 7.029-6.842 7.398 0.632 0.647 1.022 1.532 1.022 2.509 0 0.093-0.004 0.186-0.011 0.278l0.001-0.012c0 2.007-0.019 3.619-0.019 4.106 0 0.394 0.262 0.862 1.031 0.712 6.028-2.029 10.292-7.629 10.292-14.226 0-8.272-6.706-14.977-14.977-14.977-0.006 0-0.013 0-0.019 0h0.001z">
        </path>
    </g>

//git svg
    <g id="gitSvgrepoCom">
        <path
            d="M2.58536 17.4132C1.80488 16.6327 1.80488 15.3673 2.58536 14.5868L14.5868 2.58536C15.3673 1.80488 16.6327 1.80488 17.4132 2.58536L29.4146 14.5868C30.1951 15.3673 30.1951 16.6327 29.4146 17.4132L17.4132 29.4146C16.6327 30.1951 15.3673 30.1951 14.5868 29.4146L2.58536 17.4132Z"
            fill="#EE513B" />
        <path
            d="M12.1489 5.06152L10.9336 6.27686L14.0725 9.41577C13.9455 9.68819 13.8746 9.99201 13.8746 10.3124C13.8746 11.222 14.4461 11.9981 15.2496 12.3012V19.9798C14.4461 20.2829 13.8746 21.059 13.8746 21.9686C13.8746 23.1422 14.826 24.0936 15.9996 24.0936C17.1732 24.0936 18.1246 23.1422 18.1246 21.9686C18.1246 21.144 17.6549 20.429 16.9684 20.0768V12.3117L19.9689 15.3122C19.8481 15.5791 19.7809 15.8754 19.7809 16.1874C19.7809 17.361 20.7323 18.3124 21.9059 18.3124C23.0795 18.3124 24.0309 17.361 24.0309 16.1874C24.0309 15.0138 23.0795 14.0624 21.9059 14.0624C21.6778 14.0624 21.4582 14.0983 21.2522 14.1648L18.0297 10.9423C18.0914 10.7433 18.1246 10.5317 18.1246 10.3124C18.1246 9.13878 17.1732 8.18738 15.9996 8.18738C15.7803 8.18738 15.5688 8.22061 15.3697 8.2823L12.1489 5.06152Z"
            fill="white" />
    </g>

//gmail svg
    <g id="gmailSvgrepoCom">
        <path
            d="M2 11.9556C2 8.47078 2 6.7284 2.67818 5.39739C3.27473 4.22661 4.22661 3.27473 5.39739 2.67818C6.7284 2 8.47078 2 11.9556 2H20.0444C23.5292 2 25.2716 2 26.6026 2.67818C27.7734 3.27473 28.7253 4.22661 29.3218 5.39739C30 6.7284 30 8.47078 30 11.9556V20.0444C30 23.5292 30 25.2716 29.3218 26.6026C28.7253 27.7734 27.7734 28.7253 26.6026 29.3218C25.2716 30 23.5292 30 20.0444 30H11.9556C8.47078 30 6.7284 30 5.39739 29.3218C4.22661 28.7253 3.27473 27.7734 2.67818 26.6026C2 25.2716 2 23.5292 2 20.0444V11.9556Z"
            fill="white" />
        <path
            d="M22.0515 8.52295L16.0644 13.1954L9.94043 8.52295V8.52421L9.94783 8.53053V15.0732L15.9954 19.8466L22.0515 15.2575V8.52295Z"
            fill="#EA4335" />
        <path
            d="M23.6231 7.38639L22.0508 8.52292V15.2575L26.9983 11.459V9.17074C26.9983 9.17074 26.3978 5.90258 23.6231 7.38639Z"
            fill="#FBBC05" />
        <path
            d="M22.0508 15.2575V23.9924H25.8428C25.8428 23.9924 26.9219 23.8813 26.9995 22.6513V11.459L22.0508 15.2575Z"
            fill="#34A853" />
        <path d="M9.94811 24.0001V15.0732L9.94043 15.0669L9.94811 24.0001Z" fill="#C5221F" />
        <path d="M9.94014 8.52404L8.37646 7.39382C5.60179 5.91001 5 9.17692 5 9.17692V11.4651L9.94014 15.0667V8.52404Z"
            fill="#C5221F" />
        <path d="M9.94043 8.52441V15.0671L9.94811 15.0734V8.53073L9.94043 8.52441Z" fill="#C5221F" />
        <path d="M5 11.4668V22.6591C5.07646 23.8904 6.15673 24.0003 6.15673 24.0003H9.94877L9.94014 15.0671L5 11.4668Z"
            fill="#4285F4" />
    </g>

    <g id="graphqlSvgrepoCom">
        <g fill-rule="evenodd">
            <path
                d="M152.575995,32.9634453 L211.722058,67.1124427 C213.387503,65.348329 215.332859,63.7907081 217.539734,62.5088708 C229.806457,55.4573413 245.452038,59.6441869 252.577021,71.9109101 C259.62855,84.1776333 255.441705,99.8232143 243.174982,106.948197 C240.984974,108.207124 238.684929,109.10784 236.343812,109.66832 L236.343812,177.99302 C238.659582,178.554683 240.934429,179.449686 243.101528,180.695443 C255.441705,187.820426 259.62855,203.466007 252.503568,215.73273 C245.452038,227.999453 229.733004,232.186299 217.46628,225.13477 C215.024105,223.730884 212.902189,221.983449 211.125456,219.988103 L152.340162,253.928803 C153.180519,256.46808 153.635248,259.18431 153.635248,262.008393 C153.635248,276.111452 142.176512,287.64364 128,287.64364 C113.823488,287.64364 102.364752,276.184905 102.364752,262.008393 C102.364752,259.488481 102.726802,257.054441 103.40181,254.755362 L44.2714887,220.615454 C42.6238257,222.34493 40.705394,223.873378 38.5337196,225.13477 C26.193543,232.186299 10.547962,227.999453 3.49643248,215.73273 C-3.55509701,203.466007 0.631748621,187.820426 12.8984718,180.695443 C15.0673397,179.448669 17.3418356,178.553222 19.6561876,177.991646 L19.6561876,109.66832 C17.3150714,109.10784 15.0150257,108.207124 12.8250184,106.948197 C0.558295189,99.8966677 -3.62855044,84.1776333 3.42297904,71.9109101 C10.4745085,59.6441869 26.193543,55.4573413 38.4602662,62.5088708 C40.6551374,63.7837361 42.5913269,65.3313931 44.2507413,67.0836756 L103.41276,32.9254664 C102.730718,30.6154532 102.364752,28.1687503 102.364752,25.6352478 C102.364752,11.4587354 113.823488,0 128,0 C142.176512,0 153.635248,11.4587354 153.635248,25.6352478 C153.635248,28.1826393 153.265258,30.6422768 152.575995,32.9634453 Z M146.413638,43.4848713 L205.700555,77.715193 C203.867899,84.1516888 204.540515,91.2885638 208.137694,97.5461579 C211.746601,103.824151 217.625783,107.985785 224.150543,109.607654 L224.150543,178.017842 C223.818032,178.099463 223.48718,178.187674 223.158201,178.282419 L145.72529,44.1686182 C145.959017,43.9450469 146.18851,43.7170876 146.413638,43.4848713 Z M110.29093,44.1841203 L32.8593279,178.295656 C32.524559,178.19844 32.1878611,178.108015 31.8494573,178.024438 L31.8494573,109.607654 C38.3742168,107.985785 44.2533992,103.824151 47.8623055,97.5461579 C51.466599,91.276189 52.1347497,84.1234583 50.2885426,77.6770157 L109.558747,43.4563434 C109.797913,43.7038019 110.042027,43.9464469 110.29093,44.1841203 Z M135.162749,50.259763 L212.576817,184.340928 C210.844241,185.99279 209.317376,187.91755 208.064241,190.097482 C206.818484,192.264581 205.923481,194.539429 205.361818,196.855198 L50.6395564,196.855198 C50.0779798,194.540846 49.1825333,192.26635 47.9357589,190.097482 C46.6776713,187.931497 45.1539248,186.017428 43.4300297,184.372667 L120.858821,50.2659993 C123.124941,50.9200822 125.520915,51.2704957 128,51.2704957 C130.486952,51.2704957 132.890265,50.9178547 135.162749,50.259763 Z M146.958084,244.737995 L205.860107,210.729899 C205.683398,210.174924 205.525483,209.614096 205.38664,209.048468 L50.6067643,209.048468 C50.5246888,209.380792 50.4360084,209.711472 50.3407792,210.040295 L109.531782,244.215239 C114.192298,239.378545 120.739739,236.373145 128,236.373145 C135.518379,236.373145 142.272352,239.596041 146.958084,244.737995 Z"
                fill="#E535AB">

            </path>
        </g>
    </g>

//html svg
    <g id="html5SvgrepoCom">
        <path d="M6 28L4 3H28L26 28L16 31L6 28Z" fill="#E44D26" />
        <path d="M26 5H16V29.5L24 27L26 5Z" fill="#F16529" />
        <path
            d="M9.5 17.5L8.5 8H24L23.5 11H11.5L12 14.5H23L22 24L16 26L10 24L9.5 19H12.5L13 21.5L16 22.5L19 21.5L19.5 17.5H9.5Z"
            fill="white" />
    </g>

    <g id="javascriptSvgrepoCom">
        <rect width="512" height="512" rx="15%" fill="#f7df1e" />
        <path
            d="M324 370c10 17 24 29 47 29c20 0 33-10 33 -24c0-16 -13 -22 -35 -32l-12-5c-35-15 -58 -33 -58 -72c0-36 27 -64 70 -64c31 0 53 11 68 39l-37 24c-8-15 -17 -21 -31 -21c-14 0-23 9 -23 21c0 14 9 20 30 29l12 5c41 18 64 35 64 76c0 43-34 67 -80 67c-45 0-74 -21 -88 -49zm-170 4c8 13 14 25 31 25c16 0 26-6 26 -30V203h48v164c0 50-29 72 -72 72c-39 0-61 -20 -72 -44z" />
    </g>

//linkedin svg
    <g id="linkedinSvgrepoCom">
        <circle cx="24" cy="24" r="20" fill="#0077B5" />
        <path fill-rule="evenodd" clip-rule="evenodd"
            d="M18.7747 14.2839C18.7747 15.529 17.8267 16.5366 16.3442 16.5366C14.9194 16.5366 13.9713 15.529 14.0007 14.2839C13.9713 12.9783 14.9193 12 16.3726 12C17.8267 12 18.7463 12.9783 18.7747 14.2839ZM14.1199 32.8191V18.3162H18.6271V32.8181H14.1199V32.8191Z"
            fill="white" />
        <path fill-rule="evenodd" clip-rule="evenodd"
            d="M22.2393 22.9446C22.2393 21.1357 22.1797 19.5935 22.1201 18.3182H26.0351L26.2432 20.305H26.3322C26.9254 19.3854 28.4079 17.9927 30.8101 17.9927C33.7752 17.9927 35.9995 19.9502 35.9995 24.219V32.821H31.4922V24.7838C31.4922 22.9144 30.8404 21.6399 29.2093 21.6399C27.9633 21.6399 27.2224 22.4999 26.9263 23.3297C26.8071 23.6268 26.7484 24.0412 26.7484 24.4574V32.821H22.2411V22.9446H22.2393Z"
            fill="white" />
    </g>

    <g id="logoTsSvgrepoCom">
        <path fill-rule="evenodd" clip-rule="evenodd"
            d="M20 5H5V20H20V5ZM11.0769 18H9.82349V13.0444H8.02637V12.011H12.874V13.0444H11.0769V18ZM18.2893 16.2153C18.2893 17.4023 17.3679 18.1536 15.8738 18.1536C14.4419 18.1536 13.5371 17.4688 13.4666 16.4062L13.4624 16.3398H14.6702L14.6743 16.3813C14.72 16.8296 15.2056 17.1326 15.907 17.1326C16.5752 17.1326 17.0359 16.813 17.0359 16.3523V16.3481C17.0359 15.9539 16.7412 15.7339 15.9983 15.5803L15.3674 15.4517C14.1223 15.1985 13.5869 14.6174 13.5869 13.7085V13.7043C13.5869 12.592 14.5415 11.8574 15.8696 11.8574C17.2683 11.8574 18.0901 12.5962 18.1689 13.5964L18.1731 13.6504H16.9944L16.9861 13.6006C16.9155 13.1731 16.5005 12.8743 15.8696 12.8743C15.2512 12.8784 14.8403 13.1606 14.8403 13.6089V13.613C14.8403 14.0032 15.1309 14.2356 15.8364 14.3809L16.4714 14.5095C17.7373 14.771 18.2893 15.2773 18.2893 16.2112V16.2153Z"
            fill="#121923" />
    </g>

    <g id="npmSvgrepoCom">
        <path
            d="M4.5 10.5V12.5H6.5V10.5H14.5V4.5H0.5V10.5H4.5ZM4.5 10.5V4.5M8.5 4.5V10.5M6.5 6V9M2.5 6V10.5M10.5 6V10.5M12.5 6V10.5"
            stroke="#000000" />
    </g>

    <g id="reactSvgrepoCom">
        <g>
            <path
                d="M210.483381,73.8236374 C207.827698,72.9095503 205.075867,72.0446761 202.24247,71.2267368 C202.708172,69.3261098 203.135596,67.4500894 203.515631,65.6059664 C209.753843,35.3248922 205.675082,10.9302478 191.747328,2.89849283 C178.392359,-4.80289661 156.551327,3.22703567 134.492936,22.4237776 C132.371761,24.2697233 130.244662,26.2241201 128.118477,28.2723861 C126.701777,26.917204 125.287358,25.6075897 123.876584,24.3549348 C100.758745,3.82852863 77.5866802,-4.82157937 63.6725966,3.23341515 C50.3303869,10.9571328 46.3792156,33.8904224 51.9945178,62.5880206 C52.5367729,65.3599011 53.1706189,68.1905639 53.8873982,71.068617 C50.6078941,71.9995641 47.4418534,72.9920277 44.4125156,74.0478303 C17.3093297,83.497195 0,98.3066828 0,113.667995 C0,129.533287 18.5815786,145.446423 46.8116526,155.095373 C49.0394553,155.856809 51.3511025,156.576778 53.7333796,157.260293 C52.9600965,160.37302 52.2875179,163.423318 51.7229345,166.398431 C46.3687351,194.597975 50.5500231,216.989464 63.8566899,224.664425 C77.6012619,232.590464 100.66852,224.443422 123.130185,204.809231 C124.905501,203.257196 126.687196,201.611293 128.472081,199.886102 C130.785552,202.113904 133.095375,204.222319 135.392897,206.199955 C157.14963,224.922338 178.637969,232.482469 191.932332,224.786092 C205.663234,216.837268 210.125675,192.78347 204.332202,163.5181 C203.88974,161.283006 203.374826,158.99961 202.796573,156.675661 C204.416503,156.196743 206.006814,155.702335 207.557482,155.188332 C236.905331,145.46465 256,129.745175 256,113.667995 C256,98.2510906 238.132466,83.3418093 210.483381,73.8236374 L210.483381,73.8236374 Z M204.118035,144.807565 C202.718197,145.270987 201.281904,145.718918 199.818271,146.153177 C196.578411,135.896354 192.205739,124.989735 186.854729,113.72131 C191.961041,102.721277 196.164656,91.9540963 199.313837,81.7638014 C201.93261,82.5215915 204.474374,83.3208483 206.923636,84.1643056 C230.613348,92.3195488 245.063763,104.377206 245.063763,113.667995 C245.063763,123.564379 229.457753,136.411268 204.118035,144.807565 L204.118035,144.807565 Z M193.603754,165.642007 C196.165567,178.582766 196.531475,190.282717 194.834536,199.429057 C193.309843,207.64764 190.243595,213.12715 186.452366,215.321689 C178.384612,219.991462 161.131788,213.921395 142.525146,197.909832 C140.392124,196.074366 138.243609,194.114502 136.088259,192.040261 C143.301619,184.151133 150.510878,174.979732 157.54698,164.793993 C169.922699,163.695814 181.614905,161.900447 192.218042,159.449363 C192.740247,161.555956 193.204126,163.621993 193.603754,165.642007 L193.603754,165.642007 Z M87.2761866,214.514686 C79.3938934,217.298414 73.1160375,217.378157 69.3211631,215.189998 C61.2461189,210.532528 57.8891498,192.554265 62.4682434,168.438039 C62.9927272,165.676183 63.6170041,162.839142 64.3365173,159.939216 C74.8234575,162.258154 86.4299951,163.926841 98.8353334,164.932519 C105.918826,174.899534 113.336329,184.06091 120.811247,192.08264 C119.178102,193.65928 117.551336,195.16028 115.933685,196.574699 C106.001303,205.256705 96.0479605,211.41654 87.2761866,214.514686 L87.2761866,214.514686 Z M50.3486141,144.746959 C37.8658105,140.48046 27.5570398,134.935332 20.4908634,128.884403 C14.1414664,123.446815 10.9357817,118.048415 10.9357817,113.667995 C10.9357817,104.34622 24.8334611,92.4562517 48.0123604,84.3748281 C50.8247961,83.3942121 53.7689223,82.4701001 56.8242337,81.6020363 C60.0276398,92.0224477 64.229889,102.917218 69.3011135,113.93411 C64.1642716,125.11459 59.9023288,136.182975 56.6674809,146.725506 C54.489347,146.099407 52.3791089,145.440499 50.3486141,144.746959 L50.3486141,144.746959 Z M62.7270678,60.4878073 C57.9160346,35.9004118 61.1112387,17.3525532 69.1516515,12.6982729 C77.7160924,7.74005624 96.6544653,14.8094222 116.614922,32.5329619 C117.890816,33.6657739 119.171723,34.8514442 120.456275,36.0781256 C113.018267,44.0647686 105.66866,53.1573386 98.6480514,63.0655695 C86.6081646,64.1815215 75.0831931,65.9741531 64.4868907,68.3746571 C63.8206914,65.6948233 63.2305903,63.0619242 62.7270678,60.4878073 L62.7270678,60.4878073 Z M173.153901,87.7550367 C170.620796,83.3796304 168.020249,79.1076627 165.369124,74.9523483 C173.537126,75.9849113 181.362914,77.3555864 188.712066,79.0329319 C186.505679,86.1041206 183.755673,93.4974728 180.518546,101.076741 C178.196419,96.6680702 175.740322,92.2229454 173.153901,87.7550367 L173.153901,87.7550367 Z M128.122121,43.8938899 C133.166461,49.3588189 138.218091,55.4603279 143.186789,62.0803968 C138.179814,61.8439007 133.110868,61.720868 128.000001,61.720868 C122.937434,61.720868 117.905854,61.8411667 112.929865,62.0735617 C117.903575,55.515009 122.99895,49.4217021 128.122121,43.8938899 L128.122121,43.8938899 Z M82.8018984,87.830679 C80.2715265,92.2183886 77.8609975,96.6393627 75.5753239,101.068539 C72.3906004,93.5156998 69.6661103,86.0886276 67.440586,78.9171899 C74.7446255,77.2826781 82.5335049,75.9461789 90.6495601,74.9332099 C87.9610684,79.1268011 85.3391054,83.4302106 82.8018984,87.8297677 L82.8018984,87.830679 L82.8018984,87.830679 Z M90.8833221,153.182899 C82.4979621,152.247395 74.5919739,150.979704 67.289757,149.390303 C69.5508242,142.09082 72.3354636,134.505173 75.5876271,126.789657 C77.8792246,131.215644 80.2993228,135.638441 82.8451877,140.03572 L82.8456433,140.03572 C85.4388987,144.515476 88.1255676,148.90364 90.8833221,153.182899 L90.8833221,153.182899 Z M128.424691,184.213105 C123.24137,178.620587 118.071264,172.434323 113.021912,165.780078 C117.923624,165.972373 122.921029,166.0708 128.000001,166.0708 C133.217953,166.0708 138.376211,165.953235 143.45336,165.727219 C138.468257,172.501308 133.434855,178.697141 128.424691,184.213105 L128.424691,184.213105 Z M180.622896,126.396409 C184.044571,134.195313 186.929004,141.741317 189.219234,148.9164 C181.796719,150.609693 173.782736,151.973534 165.339049,152.986959 C167.996555,148.775595 170.619884,144.430263 173.197646,139.960532 C175.805484,135.438399 178.28163,130.90943 180.622896,126.396409 L180.622896,126.396409 Z M163.724586,134.496971 C159.722835,141.435557 155.614455,148.059271 151.443648,154.311611 C143.847063,154.854776 135.998946,155.134562 128.000001,155.134562 C120.033408,155.134562 112.284171,154.887129 104.822013,154.402745 C100.48306,148.068386 96.285368,141.425078 92.3091341,134.556664 L92.3100455,134.556664 C88.3442923,127.706935 84.6943232,120.799333 81.3870228,113.930466 C84.6934118,107.045648 88.3338117,100.130301 92.276781,93.292874 L92.2758697,93.294241 C96.2293193,86.4385872 100.390102,79.8276317 104.688954,73.5329157 C112.302398,72.9573964 120.109505,72.6571055 127.999545,72.6571055 L128.000001,72.6571055 C135.925583,72.6571055 143.742714,72.9596746 151.353879,73.5402067 C155.587114,79.7888993 159.719645,86.3784378 163.688588,93.2350031 C167.702644,100.168578 171.389978,107.037901 174.724618,113.77508 C171.400003,120.627999 167.720871,127.566587 163.724586,134.496971 L163.724586,134.496971 Z M186.284677,12.3729198 C194.857321,17.3165548 198.191049,37.2542268 192.804953,63.3986692 C192.461372,65.0669011 192.074504,66.7661189 191.654369,68.4881206 C181.03346,66.0374921 169.500286,64.2138746 157.425315,63.0810626 C150.391035,53.0639249 143.101577,43.9572289 135.784778,36.073113 C137.751934,34.1806885 139.716356,32.3762092 141.672575,30.673346 C160.572216,14.2257007 178.236518,7.73185406 186.284677,12.3729198 L186.284677,12.3729198 Z M128.000001,90.8080696 C140.624975,90.8080696 150.859926,101.042565 150.859926,113.667995 C150.859926,126.292969 140.624975,136.527922 128.000001,136.527922 C115.375026,136.527922 105.140075,126.292969 105.140075,113.667995 C105.140075,101.042565 115.375026,90.8080696 128.000001,90.8080696 L128.000001,90.8080696 Z"
                fill="#00D8FF">
            </path>
        </g>
    </g>

//redux svg
    <g id="reduxSvgrepoCom">
        <path
            d="M21.7868 21.556C22.8939 21.4433 23.7338 20.505 23.6956 19.3789C23.6575 18.253 22.703 17.3522 21.5577 17.3522H21.4814C20.2978 17.3897 19.3817 18.3656 19.4199 19.5291C19.4581 20.0921 19.6871 20.58 20.0307 20.9178C18.7327 23.4326 16.7475 25.2717 13.7698 26.8106C11.7464 27.8615 9.6468 28.2369 7.54715 27.9742C5.82918 27.749 4.49301 26.9984 3.65301 25.7596C2.43144 23.9205 2.31695 21.9312 3.34773 19.942C4.07312 18.5157 5.21828 17.4647 5.94367 16.9392C5.79098 16.4513 5.56187 15.6256 5.44738 15.0251C-0.0882044 18.9661 0.484491 24.2959 2.16426 26.8106C3.42402 28.6873 5.98187 29.8509 8.80691 29.8509C9.57039 29.8509 10.3339 29.7757 11.0975 29.5882C15.9841 28.6498 19.6872 25.7972 21.7868 21.556ZM28.5059 16.9018C25.6045 13.5613 21.3287 11.7222 16.4421 11.7222H15.8314C15.4878 11.0466 14.7624 10.5961 13.9607 10.5961H13.8843C12.7009 10.6337 11.7848 11.6095 11.8229 12.7731C11.8611 13.8991 12.8154 14.7999 13.9607 14.7999H14.037C14.8769 14.7624 15.6023 14.2369 15.9077 13.5237H16.5948C19.4963 13.5237 22.2449 14.3494 24.7265 15.9634C26.6352 17.202 28.0096 18.816 28.7731 20.7677C29.4221 22.3441 29.3839 23.883 28.6967 25.1967C27.6278 27.1859 25.8336 28.2744 23.4666 28.2744C21.9395 28.2744 20.4889 27.824 19.7253 27.4862C19.3054 27.8615 18.5418 28.462 18.0073 28.8375C19.649 29.5881 21.3287 30.001 22.9321 30.001C26.597 30.001 29.3076 28.0116 30.3384 26.0224C31.4454 23.8454 31.369 20.0921 28.5059 16.9018ZM9.1123 22.1939C9.15051 23.3199 10.1049 24.2206 11.2502 24.2206H11.3266C12.51 24.1832 13.4262 23.2073 13.388 22.0438C13.3499 20.9177 12.3954 20.017 11.2502 20.017H11.1739C11.0975 20.017 10.9829 20.017 10.9067 20.0544C9.3414 17.5022 8.69242 14.7248 8.92152 11.7221C9.0741 9.47006 9.83769 7.51828 11.1739 5.9043C12.2809 4.51555 14.4188 3.83996 15.8696 3.80252C19.9162 3.7274 21.634 8.68179 21.7486 10.6711C22.2449 10.7837 23.0848 11.0465 23.6575 11.2342C23.1993 5.15382 19.3817 2.00098 15.7169 2.00098C12.2809 2.00098 9.1123 4.44067 7.85242 8.04387C6.09637 12.8481 7.24164 17.4647 9.37949 21.1055C9.18871 21.3682 9.0741 21.7811 9.1123 22.194V22.1939Z"
            fill="#764ABC" />
    </g>

    <g id="sassSvgrepoCom">
        <g fill="#CD6799">
            <path
                d="M220.281239,110.513661 C211.374863,110.560291 203.634244,112.705282 197.152641,115.876138 C194.774499,111.166485 192.396357,106.969763 191.976685,103.892168 C191.510383,100.301639 190.95082,98.1100182 191.510383,93.8200364 C192.069945,89.5300546 194.587978,83.4214936 194.541348,82.9551913 C194.494718,82.4888889 193.981785,80.2972678 188.852459,80.2506375 C183.723133,80.2040073 179.29326,81.2298725 178.780328,82.5821494 C178.267395,83.9344262 177.28816,87.0120219 176.635337,90.182878 C175.749362,94.8459016 166.376685,111.492896 161.014208,120.21275 C159.288889,116.808743 157.796721,113.824408 157.47031,111.446266 C157.004007,107.855738 156.444444,105.664117 157.004007,101.374135 C157.56357,97.084153 160.081603,90.975592 160.034973,90.5092896 C159.988342,90.0429872 159.47541,87.8513661 154.346084,87.8047359 C149.216758,87.7581056 144.786885,88.7839709 144.273953,90.1362477 C143.76102,91.4885246 143.201457,94.6593807 142.128962,97.7369763 C141.056466,100.814572 128.606193,128.606193 125.342077,135.78725 C123.663388,139.471038 122.217851,142.408743 121.191985,144.413843 L121.191985,144.413843 C121.191985,144.413843 121.145355,144.553734 121.005464,144.786885 C120.11949,146.512204 119.606557,147.444809 119.606557,147.444809 C119.606557,147.444809 119.606557,147.444809 119.606557,147.491439 C118.907104,148.750455 118.16102,149.916211 117.787978,149.916211 C117.508197,149.916211 116.995264,146.558834 117.881239,141.989071 C119.746448,132.336612 124.176321,117.321676 124.12969,116.808743 C124.12969,116.528962 124.969035,113.917668 121.238616,112.565392 C117.601457,111.213115 116.295811,113.451366 115.969399,113.451366 C115.642987,113.451366 115.409836,114.24408 115.409836,114.24408 C115.409836,114.24408 119.466667,97.3639344 107.669217,97.3639344 C100.301639,97.3639344 90.1362477,105.430965 85.1001821,112.705282 C81.929326,114.430601 75.1679417,118.11439 67.940255,122.07796 C65.189071,123.616758 62.3446266,125.155556 59.6867031,126.601093 C59.5001821,126.414572 59.3136612,126.181421 59.1271403,125.9949 C44.8582878,110.746812 18.4655738,99.9752277 19.5846995,79.5045537 C20.0043716,72.0437158 22.5690346,52.4590164 70.2717668,28.6775956 C109.534426,9.32604736 140.776685,14.6885246 146.185792,26.579235 C153.926412,43.5526412 129.445537,75.0746812 88.8772313,79.6444444 C73.3959927,81.3697632 65.2823315,75.4010929 63.2306011,73.1628415 C61.0856102,70.8313297 60.7591985,70.691439 59.9664845,71.1577413 C58.6608379,71.8571949 59.5001821,73.9555556 59.9664845,75.1679417 C61.1788707,78.3387978 66.168306,83.9344262 74.6083789,86.6856102 C82.0692168,89.1103825 100.208379,90.4626594 122.17122,81.9759563 C146.745355,72.463388 165.957013,46.0240437 160.314754,23.8746812 C154.672495,1.3989071 117.368306,-6.01530055 82.0692168,6.52823315 C61.0856102,13.989071 38.3300546,25.7398907 21.9628415,41.0346084 C2.51803279,59.2204007 -0.559562842,75.028051 0.699453552,81.6495446 C5.22258652,105.151184 37.6306011,120.445902 50.5938069,131.777049 C49.9409836,132.150091 49.3347905,132.476503 48.8218579,132.756284 C42.340255,135.97377 17.6262295,148.890346 11.4710383,162.553005 C4.47650273,178.034244 12.5901639,189.13224 17.9526412,190.624408 C34.5996357,195.240801 51.7129326,186.940619 60.8990893,173.23133 C70.0852459,159.52204 68.9661202,141.70929 64.7227687,133.548998 C64.6761384,133.455738 64.6295082,133.362477 64.5362477,133.269217 C66.2149362,132.289982 67.940255,131.264117 69.6189435,130.284882 C72.9296903,128.326412 76.1938069,126.507832 78.9916211,125.015665 C77.4061931,129.352277 76.2404372,134.528233 75.6808743,141.989071 C74.9814208,150.755556 78.571949,162.133333 83.2816029,166.609836 C85.3799636,168.568306 87.8513661,168.614936 89.4367942,168.614936 C94.9391621,168.614936 97.4105647,164.045173 100.161749,158.636066 C103.519126,152.014572 106.550091,144.320583 106.550091,144.320583 C106.550091,144.320583 102.773042,165.117668 113.031694,165.117668 C116.762113,165.117668 120.539162,160.268124 122.217851,157.796721 L122.217851,157.843352 C122.217851,157.843352 122.311111,157.703461 122.497632,157.377049 C122.870674,156.770856 123.103825,156.397814 123.103825,156.397814 L123.103825,156.304554 C124.595993,153.69326 127.95337,147.77122 132.942805,137.93224 C139.377778,125.248816 145.579599,109.394536 145.579599,109.394536 C145.579599,109.394536 146.139162,113.264845 148.051002,119.699818 C149.170128,123.476867 151.501639,127.626958 153.366849,131.637158 C151.874681,133.735519 150.942077,134.901275 150.942077,134.901275 C150.942077,134.901275 150.942077,134.901275 150.988707,134.947905 C149.776321,136.533333 148.470674,138.258652 147.025137,139.937341 C141.942441,145.999271 135.88051,152.947177 135.041166,154.952277 C134.061931,157.330419 134.295082,159.055738 136.160291,160.454645 C137.512568,161.48051 139.937341,161.620401 142.408743,161.48051 C146.978506,161.154098 150.195993,160.034973 151.781421,159.335519 C154.252823,158.449545 157.143898,157.097268 159.848452,155.092168 C164.837887,151.408379 167.868852,146.139162 167.589071,139.191257 C167.44918,135.367577 166.190164,131.543898 164.651366,127.95337 C165.117668,127.300546 165.537341,126.647723 166.003643,125.9949 C173.884153,114.477231 179.992714,101.840437 179.992714,101.840437 C179.992714,101.840437 180.552277,105.710747 182.464117,112.145719 C183.396721,115.409836 185.308561,118.953734 186.98725,122.404372 C179.573042,128.419672 175.003279,135.414208 173.37122,139.983971 C170.433515,148.470674 172.718397,152.294353 177.055009,153.180328 C179.013479,153.6 181.811293,152.667395 183.863024,151.781421 C186.474317,150.942077 189.551913,149.496539 192.489617,147.351548 C197.479053,143.66776 202.281967,138.538434 202.002186,131.590528 C201.862295,128.419672 201.022951,125.295446 199.857195,122.264481 C206.152277,119.653188 214.265938,118.20765 224.617851,119.420036 C246.813843,122.03133 251.197086,135.88051 250.357741,141.70929 C249.518397,147.538069 244.855373,150.708925 243.316576,151.68816 C241.777778,152.667395 241.264845,152.993807 241.404736,153.69326 C241.591257,154.719126 242.337341,154.672495 243.642987,154.485974 C245.461566,154.159563 255.300546,149.776321 255.720219,139.051366 C256.419672,125.342077 243.363206,110.37377 220.281239,110.513661 L220.281239,110.513661 Z M49.0550091,168.241894 C41.6874317,176.262295 31.4287796,179.29326 26.9989071,176.728597 C22.242623,173.977413 24.1078324,162.133333 33.1540984,153.64663 C38.6564663,148.470674 45.7442623,143.66776 50.4539162,140.730055 C51.5264117,140.077231 53.1118397,139.144627 55.0236794,137.978871 C55.3500911,137.79235 55.536612,137.699089 55.536612,137.699089 L55.536612,137.699089 C55.9096539,137.465938 56.2826958,137.232787 56.6557377,136.999636 C59.9664845,149.123497 56.7956284,159.801821 49.0550091,168.241894 L49.0550091,168.241894 Z M102.679781,131.777049 C100.115118,138.025501 94.7526412,154.019672 91.4885246,153.133698 C88.6907104,152.387614 86.9653916,140.263752 90.9289617,128.279781 C92.9340619,122.264481 97.1774135,115.083424 99.648816,112.28561 C103.659016,107.809107 108.088889,106.31694 109.161384,108.135519 C110.513661,110.513661 104.265209,127.860109 102.679781,131.777049 L102.679781,131.777049 Z M146.931876,152.947177 C145.859381,153.50674 144.833515,153.879781 144.367213,153.6 C144.040801,153.413479 144.833515,152.667395 144.833515,152.667395 C144.833515,152.667395 150.382514,146.698725 152.574135,143.994171 C153.833151,142.408743 155.325319,140.543534 156.910747,138.445173 L156.910747,139.051366 C156.910747,146.185792 150.009472,150.988707 146.931876,152.947177 L146.931876,152.947177 Z M181.065209,145.159927 C180.272495,144.600364 180.412386,142.735155 183.07031,136.906375 C184.096175,134.621494 186.520947,130.797814 190.671038,127.114026 C191.137341,128.606193 191.463752,130.05173 191.417122,131.404007 C191.370492,140.403643 184.935519,143.76102 181.065209,145.159927 L181.065209,145.159927 Z">

            </path>
        </g>
    </g>

    <g id="styledComponentsSvgrepoCom">
        <title>styled-components icon</title>
        <path
            d="M16.214 6.762l-.075.391c-.116.741-.074.953.244 1.228l.307.254-.318 1.418c-.19.846-.423 1.555-.571 1.788-.127.201-.275.497-.307.656-.053.19-.233.381-.508.55-.243.138-.72.508-1.058.805-.27.243-.456.392-.557.456l-.33.261c-.106.17-.166.307-.189.411-.023.107-.01.178.024.23.033.05.09.085.168.107a.954.954 0 00.282.023 3 3 0 00.632-.112c.07-.019.125-.037.173-.053.074-.091.245-.263.548-.562.804-.793 1.111-1.227.794-1.11-.117.042-.064-.064.137-.276.424-.413.667-1.037 1.175-2.994.402-1.545.402-1.567.698-1.567.139 0 .532.024.532.024V6.762h-.902zm3.839 3.165c-.064 0-.17.096-.233.202-.116.19.021.306 1.767 1.396 1.037.657 1.873 1.217 1.852 1.26-.021.031-.868.582-1.883 1.217-1.842 1.142-1.852 1.153-1.683 1.386.212.275 0 .37 2.391-1.122L24 13.155v-.836l-1.937-1.196c-1.047-.656-1.957-1.185-2.01-1.196zm-16.085.117c-.053 0-.963.54-2.01 1.185L0 12.425v.836l1.947 1.217c1.08.666 1.99 1.217 2.032 1.217.042 0 .127-.096.212-.212.127-.201.02-.286-1.768-1.418C.72 12.996.54 12.848.71 12.732c.106-.074.91-.572 1.778-1.111 1.979-1.217 1.873-1.133 1.714-1.387-.063-.105-.17-.2-.233-.19zm8.684.023c-.292-.002-.92.443-2.8 1.978-.081.193-.088.326-.051.412.024.059.068.1.129.13.06.03.138.048.224.055.171.015.373-.012.536-.044l.11-.025a.386.386 0 01.144-.118c.116-.064.603-.508 1.09-.984.857-.868 1.058-1.26.709-1.387a.24.24 0 00-.09-.017zm2.196.603c-.257.007-.72.305-1.513.938-.398.323-.65.497-.785.533l-.524.414c-.197.36-.226.583-.174.706a.25.25 0 00.138.134.644.644 0 00.24.045 2.18 2.18 0 00.58-.085 3.466 3.466 0 00.291-.092l.029-.012.053-.028c.1-.129.33-.372.618-.652.91-.878 1.375-1.502 1.28-1.735-.043-.113-.117-.17-.233-.166zm-2.424 1.08c-.074.008-.24.136-.539.398-.432.382-.903.602-1.066.504a3.97 3.97 0 01-.114.024c-.166.033-.373.06-.558.045a.708.708 0 01-.252-.063.337.337 0 01-.168-.17c-.037-.09-.037-.202.005-.345l-.65.534-1.471 1.217V15.867l4.82-3.797a.41.41 0 01.016-.123c.037-.134.035-.202-.023-.196zm2.074.639c-.073 0-.195.103-.39.31-.265.283-.682.557-.903.613l-.034.018a2.191 2.191 0 01-.11.042c-.06.02-.138.044-.228.068-.18.049-.404.094-.604.089a.732.732 0 01-.275-.054.344.344 0 01-.184-.18c-.058-.139-.035-.334.092-.611L7.61 16.033v1.205h1.868l3.962-3.112c.103-.114.258-.27.467-.465.56-.519.687-.698.687-.963 0-.206-.023-.31-.096-.31zm.943 1.95l-.339.338c-.19.18-.529.402-.761.497l-.046.02-.003.005-.01.01c-.009.007-.013.008-.02.011a3.432 3.432 0 01-.282.093 3.058 3.058 0 01-.65.115 1.035 1.035 0 01-.31-.027.364.364 0 01-.218-.144c-.048-.074-.062-.173-.035-.295a1.11 1.11 0 01.095-.25l-3.197 2.526h4.252l.508-.582c.698-.814 1.016-1.396 1.016-1.894z" />
    </g>

    <g id="tailwindCssSvgrepoCom">
        <path fill-rule="evenodd" clip-rule="evenodd"
            d="M12 6.036c-2.667 0-4.333 1.325-5 3.976 1-1.325 2.167-1.822 3.5-1.491.761.189 1.305.738 1.906 1.345C13.387 10.855 14.522 12 17 12c2.667 0 4.333-1.325 5-3.976-1 1.325-2.166 1.822-3.5 1.491-.761-.189-1.305-.738-1.907-1.345-.98-.99-2.114-2.134-4.593-2.134zM7 12c-2.667 0-4.333 1.325-5 3.976 1-1.326 2.167-1.822 3.5-1.491.761.189 1.305.738 1.907 1.345.98.989 2.115 2.134 4.594 2.134 2.667 0 4.333-1.325 5-3.976-1 1.325-2.167 1.822-3.5 1.491-.761-.189-1.305-.738-1.906-1.345C10.613 13.145 9.478 12 7 12z" />
    </g>

    <g id="viteSvgrepoCom">
        <title>file_type_vite</title>
        <path
            d="M29.8836 6.146L16.7418 29.6457c-.2714.4851-.9684.488-1.2439.0052L2.0956 6.1482c-.3-.5262.1498-1.1635.746-1.057l13.156 2.3516a.7144.7144 0 00.2537-.0004l12.8808-2.3478c.5942-.1083 1.0463.5241.7515 1.0513z"
            fill="url(#paint0_linear)" />
        <path
            d="M22.2644 2.0069l-9.7253 1.9056a.3571.3571 0 00-.2879.3294l-.5982 10.1038c-.014.238.2045.4227.4367.3691l2.7077-.6248c.2534-.0585.4823.1647.4302.4194l-.8044 3.9393c-.0542.265.1947.4918.4536.4132l1.6724-.5082c.2593-.0787.5084.1487.4536.414l-1.2784 6.1877c-.08.387.4348.598.6495.2662L16.5173 25 24.442 9.1848c.1327-.2648-.096-.5667-.387-.5106l-2.787.5379c-.262.0505-.4848-.1934-.4109-.4497l1.8191-6.306c.074-.2568-.1496-.5009-.4118-.4495z"
            fill="url(#paint1_linear)" />
        <defs id="defs50">
            <linearGradient id="paint0_linear" x1="6.0002" y1="32.9999" x2="235" y2="344" gradientUnits="userSpaceOnUse"
                gradientTransform="matrix(.07142 0 0 .07142 1.3398 1.8944)">
                <stop stop-color="#41D1FF" id="stop38" />
                <stop offset="1" stop-color="#BD34FE" id="stop40" />
            </linearGradient>
            <linearGradient id="paint1_linear" x1="194.651" y1="8.8182" x2="236.076" y2="292.989"
                gradientUnits="userSpaceOnUse" gradientTransform="matrix(.07142 0 0 .07142 1.3398 1.8944)">
                <stop stop-color="#FFEA83" id="stop43" />
                <stop offset=".0833" stop-color="#FFDD35" id="stop45" />
                <stop offset="1" stop-color="#FFA800" id="stop47" />
            </linearGradient>
        </defs>
    </g>

//vscode svg
    <g id="vscodeSvgrepoCom">
        <title>file_type_vscode</title>
        <path
            d="M29.01,5.03,23.244,2.254a1.742,1.742,0,0,0-1.989.338L2.38,19.8A1.166,1.166,0,0,0,2.3,21.447c.025.027.05.053.077.077l1.541,1.4a1.165,1.165,0,0,0,1.489.066L28.142,5.75A1.158,1.158,0,0,1,30,6.672V6.605A1.748,1.748,0,0,0,29.01,5.03Z"
            style="fill:#0065a9" />
        <path
            d="M29.01,26.97l-5.766,2.777a1.745,1.745,0,0,1-1.989-.338L2.38,12.2A1.166,1.166,0,0,1,2.3,10.553c.025-.027.05-.053.077-.077l1.541-1.4A1.165,1.165,0,0,1,5.41,9.01L28.142,26.25A1.158,1.158,0,0,0,30,25.328V25.4A1.749,1.749,0,0,1,29.01,26.97Z"
            style="fill:#007acc" />
        <path
            d="M23.244,29.747a1.745,1.745,0,0,1-1.989-.338A1.025,1.025,0,0,0,23,28.684V3.316a1.024,1.024,0,0,0-1.749-.724,1.744,1.744,0,0,1,1.989-.339l5.765,2.772A1.748,1.748,0,0,1,30,6.6V25.4a1.748,1.748,0,0,1-.991,1.576Z"
            style="fill:#1f9cf0" />
    </g>

    <g id="webpackSvgrepoCom">
        <g>
            <polygon fill="#FFFFFF"
                points="128 0.0483018868 256 72.4528302 256 217.310189 128 289.714717 0 217.310189 0 72.4528302">

            </polygon>
            <path
                d="M233.153208,212.286792 L132.250566,269.427925 L132.250566,224.990189 L195.139623,190.357736 L233.153208,212.286792 Z M240.060377,206.055849 L240.060377,86.6535849 L203.157736,107.954717 L203.157736,184.754717 L240.060377,206.055849 Z M22.4603774,212.286792 L123.363019,269.379623 L123.363019,224.941887 L60.4739623,190.357736 L22.4603774,212.286792 L22.4603774,212.286792 Z M15.5532075,206.055849 L15.5532075,86.6535849 L52.4558491,107.954717 L52.4558491,184.754717 L15.5532075,206.055849 L15.5532075,206.055849 Z M19.8520755,78.925283 L123.363019,20.3833962 L123.363019,63.3720755 L57.0445283,99.84 L56.5132075,100.129811 L19.8520755,78.925283 L19.8520755,78.925283 Z M235.713208,78.925283 L132.250566,20.3833962 L132.250566,63.3720755 L198.520755,99.8883019 L199.052075,100.178113 L235.713208,78.925283 L235.713208,78.925283 Z"
                fill="#8ED6FB">

            </path>
            <path
                d="M123.363019,214.846792 L61.3433962,180.697358 L61.3433962,113.123019 L123.363019,148.914717 L123.363019,214.846792 L123.363019,214.846792 Z M132.250566,214.846792 L194.270189,180.74566 L194.270189,113.123019 L132.250566,148.914717 L132.250566,214.846792 Z M65.4973585,105.298113 L127.806792,71.0520755 L190.067925,105.298113 L127.806792,141.234717 L65.4973585,105.298113 L65.4973585,105.298113 Z"
                fill="#1C78C0">

            </path>
        </g>
    </g>

    <g id="webstormSvgrepoCom">
        <defs>
            <linearGradient x1="41.7030965%" y1="1.92488263%" x2="71.8761384%" y2="95.2347418%" id="linearGradient-1">
                <stop stop-color="#00CDD7" offset="28%">

                </stop>
                <stop stop-color="#2086D7" offset="94%">

                </stop>
            </linearGradient>
            <linearGradient x1="22.4892241%" y1="15.1271186%" x2="82.8771552%" y2="84.7627119%" id="linearGradient-2">
                <stop stop-color="#FFF045" offset="14%">

                </stop>
                <stop stop-color="#00CDD7" offset="37%">

                </stop>
            </linearGradient>
            <linearGradient x1="11171%" y1="-27691.7984%" x2="11907%" y2="-28759.6256%" id="linearGradient-3">
                <stop stop-color="#00CDD7" offset="28%">

                </stop>
                <stop stop-color="#2086D7" offset="94%">

                </stop>
            </linearGradient>
        </defs>
        <g>
            <polygon fill="url(#linearGradient-1)"
                points="34.4 231.2 0 26.8 64 0.4 104.4 24.4 142 4.4 219.6 34.4 176 256">

            </polygon>
            <polygon fill="url(#linearGradient-2)"
                points="256 86.8 222.8 5.2 163.2 0 70.4 88.8 95.2 203.6 142 236 256 168.4 228 116">

            </polygon>
            <polygon fill="url(#linearGradient-3)" points="204.8 74.4 228 116 256 86.8 235.6 36">

            </polygon>
            <rect fill="#000000" x="48" y="48" width="160" height="160">

            </rect>
            <path
                d="M63.2,178 L123.2,178 L123.2,188 L63.2,188 L63.2,178 Z M141.6,125.6 L150,115.2 C156,120 162,123.2 169.6,123.2 C175.6,123.2 179.2,120.8 179.2,116.8 C179.2,113.2 176.8,111.2 166,108.4 C152.8,104.8 144.4,101.2 144.4,88 L144.4,87.6 C144.4,75.6 154,67.6 167.2,67.6 C176.04879,67.5627811 184.649333,70.5236236 191.6,76 L184,87.2 C179.170815,83.4261245 173.316089,81.1957528 167.2,80.8 C162,80.8 158.8,83.2 158.8,86.8 C158.8,91.2 161.6,92.8 172.8,95.6 C186,99.2 193.6,104 193.6,115.6 C193.6,128.8 183.6,136.4 169.6,136.4 C159.323641,136.02223 149.468301,132.220884 141.6,125.6 Z M128.8,68.8 L118.8,107.2 L107.6,68.8 L96.4,68.8 L85.2,107.2 L75.2,68.8 L59.6,68.8 L78.8,135.2 L91.2,135.2 L102,96.8 L112.8,135.2 L125.2,135.2 L144.4,68.8 L128.8,68.8 Z"
                fill="#FFFFFF">

            </path>
        </g>
    </g>

    <g id="arrow-up">

    </g>

    <g id="arrow-down">

    </g>

    <g id="arrow-left">

    </g>

    <g id="arrow-right">

    </g>
</svg>