<?xml version="1.0" standalone="no"?>
<!DOCTYPE svg PUBLIC "-//W3C//DTD SVG 20010904//EN"
 "http://www.w3.org/TR/2001/REC-SVG-20010904/DTD/svg10.dtd">
<svg version="1.0" xmlns="http://www.w3.org/2000/svg"
 width="640.000000pt" height="640.000000pt" viewBox="0 0 640.000000 640.000000"
 preserveAspectRatio="xMidYMid meet">

<g transform="translate(0.000000,640.000000) scale(0.100000,-0.100000)"
fill="#000000" stroke="none">
<path d="M5137 4753 c-245 -181 -446 -334 -447 -341 0 -15 -58 -131 -826
-1658 -635 -1261 -615 -1226 -671 -1194 -14 8 -31 22 -36 31 -7 12 20 164 102
560 61 299 113 554 116 565 5 29 -21 64 -48 64 -12 0 -92 -20 -178 -46 -239
-72 -247 -65 -200 166 17 84 28 156 25 161 -3 5 -1 9 4 9 5 0 13 21 17 46 3
26 9 53 12 62 4 10 -2 8 -18 -6 -13 -11 -208 -156 -434 -322 -225 -166 -412
-305 -413 -311 -5 -14 967 -1720 1000 -1754 25 -26 35 -30 83 -30 45 0 59 4
79 25 13 14 322 558 686 1210 364 652 877 1570 1140 2040 263 470 485 869 494
887 20 40 21 97 1 113 -9 7 -13 15 -11 18 5 4 -18 32 -27 32 -2 0 -205 -147
-450 -327z"/>
</g>
</svg>
