<svg width="50px" height="50px" viewBox="0 0 50 50" fill="none" xmlns="http://www.w3.org/2000/svg">
    <g id="AISvg">
        <svg viewBox="0 0 24 24" xmlns="http://www.w3.org/2000/svg" fill="#05d8fd">
            <g id="SVGRepo_bgCarrier" stroke-width="0"></g>
            <g id="SVGRepo_tracerCarrier" stroke-linecap="round" stroke-linejoin="round"></g>
            <g id="SVGRepo_iconCarrier">
                <defs>
                    <style>
                        .cls-1 {
                            fill: #4285f4;
                        }

                        .cls-1,
                        .cls-2,
                        .cls-4 {
                            fill-rule: evenodd;
                        }

                        .cls-2 {
                            fill: #1e88e5;
                        }

                        .cls-3,
                        .cls-4 {
                            fill: #aecbfa;
                        }

                        .cls-5 {
                            fill: #669df6;
                        }
                    </style>
                </defs>
                <title>Icon_24px_AIHub_Color</title>
                <g data-name="Product Icons">
                    <polygon class="cls-1" points="20.69 12.43 12 16.78 12 22 20.69 17.65 20.69 12.43"></polygon>
                    <path class="cls-2" d="M6.78,4.61,3.31,6.35Z"></path>
                    <polygon class="cls-1" points="17.22 8.09 17.22 8.09 17.22 12.43 20.69 10.7 20.69 6.35 17.22 8.09">
                    </polygon>
                    <polygon class="cls-1" points="12 15.04 15.48 13.31 15.48 8.96 15.48 8.96 12 10.7 12 15.04">
                    </polygon>
                    <polygon class="cls-3" points="6.78 4.61 3.31 6.35 6.78 8.09 10.26 6.35 6.78 4.61"></polygon>
                    <polygon class="cls-4" points="12 2 8.52 3.74 12 5.48 17.22 8.09 20.69 6.35 12 2"></polygon>
                    <polygon class="cls-3" points="12 7.22 8.52 8.96 12 10.7 15.48 8.96 12 7.22"></polygon>
                    <path class="cls-5" d="M8.52,15v5.22L12,22V16.78Zm2.61,5.22-1.74-.87V16.78l1.74.87Z"></path>
                    <path class="cls-5" d="M3.31,6.35v11.3l3.47,1.74V8.09Zm2.61,11.3-1.75-.87v-10l1.75.87Z"></path>
                    <path class="cls-5" d="M8.52,9,12,10.7V15L8.52,13.31Zm2.61,4.35v-3L9.39,9.45v3Z"></path>
                </g>
            </g>
        </svg>
    </g>

    <g id="BemMetodology">
        <svg viewBox="0 -22 256 256" version="1.1" xmlns="http://www.w3.org/2000/svg"
            xmlns:xlink="http://www.w3.org/1999/xlink" preserveAspectRatio="xMidYMid" fill="#000000">
            <g id="SVGRepo_bgCarrier" stroke-width="0"></g>
            <g id="SVGRepo_tracerCarrier" stroke-linecap="round" stroke-linejoin="round"></g>
            <g id="SVGRepo_iconCarrier">
                <g fill="#010101">
                    <path
                        d="M0,32.6915521 L59.8506876,32.6915521 L59.8506876,50.2946955 L0,50.2946955 L0,32.6915521 Z M0,0 L59.8506876,0 L59.8506876,17.6031434 L0,17.6031434 L0,0 Z M107.379175,65.1316306 L0,65.1316306 L0,82.7347741 L103.355599,82.7347741 C114.671906,82.7347741 141.076621,82.9862475 150.884086,98.8290766 L150.884086,89.021611 C146.10609,73.4302554 132.023576,65.1316306 107.379175,65.1316306 L107.379175,65.1316306 Z M107.630648,97.8231827 L1.42108547e-14,97.8231827 L1.42108547e-14,115.426326 L103.355599,115.426326 C128.502947,115.426326 144.345776,116.43222 150.884086,119.952849 L150.884086,112.157171 C145.854617,99.8349705 124.730845,97.8231827 107.630648,97.8231827 L107.630648,97.8231827 Z M107.379175,180.80943 L0,180.80943 L0,163.206287 L103.355599,163.206287 C114.671906,163.206287 141.076621,162.954813 150.884086,147.111984 L150.884086,156.91945 C146.10609,172.510806 132.023576,180.80943 107.379175,180.80943 L107.379175,180.80943 Z M107.630648,148.117878 L1.42108547e-14,148.117878 L1.42108547e-14,130.514735 L103.355599,130.514735 C128.502947,130.514735 144.345776,129.508841 150.884086,125.988212 L150.884086,133.78389 C145.854617,146.10609 124.730845,148.117878 107.630648,148.117878 L107.630648,148.117878 Z M177.037328,211.237721 L256,211.237721 L256,200.424361 L179.300589,200.424361 C172.510806,200.424361 156.416503,200.172888 150.632613,190.868369 L150.632613,196.903733 C153.398821,206.208251 161.948919,211.237721 177.037328,211.237721 L177.037328,211.237721 Z M176.785855,191.371316 L255.748527,191.371316 L255.748527,180.557957 L179.300589,180.557957 C163.960707,180.557957 154.404715,180.05501 150.632613,177.791749 L150.632613,182.569745 C153.650295,190.113949 166.475442,191.371316 176.785855,191.371316 L176.785855,191.371316 Z">
                    </path>
                </g>
            </g>
        </svg>
    </g>

    <g id="css3Svg">
        <svg viewBox="0 0 32 32" fill="none" xmlns="http://www.w3.org/2000/svg">
            <g id="SVGRepo_bgCarrier" stroke-width="0"></g>
            <g id="SVGRepo_tracerCarrier" stroke-linecap="round" stroke-linejoin="round"></g>
            <g id="SVGRepo_iconCarrier">
                <path d="M6 28L4 3H28L26 28L16 31L6 28Z" fill="#1172B8"></path>
                <path d="M26 5H16V29.5L24 27L26 5Z" fill="#33AADD"></path>
                <path
                    d="M19.5 17.5H9.5L9 14L17 11.5H9L8.5 8.5H24L23.5 12L17 14.5H23L22 24L16 26L10 24L9.5 19H12.5L13 21.5L16 22.5L19 21.5L19.5 17.5Z"
                    fill="white"></path>
            </g>
        </svg>
    </g>

    <g id="githubSvg">
        <svg viewBox="0 0 20 20" version="1.1" xmlns="http://www.w3.org/2000/svg"
            xmlns:xlink="http://www.w3.org/1999/xlink" fill="#000000">
            <g id="SVGRepo_bgCarrier" stroke-width="0"></g>
            <g id="SVGRepo_tracerCarrier" stroke-linecap="round" stroke-linejoin="round"></g>
            <g id="SVGRepo_iconCarrier">
                <title>github [#142]</title>
                <desc>Created with Sketch.</desc>
                <defs> </defs>
                <g id="Page-1" stroke="none" stroke-width="1" fill="none" fill-rule="evenodd">
                    <g id="Dribbble-Light-Preview" transform="translate(-140.000000, -7559.000000)" fill="#000000">
                        <g id="icons" transform="translate(56.000000, 160.000000)">
                            <path
                                d="M94,7399 C99.523,7399 104,7403.59 104,7409.253 C104,7413.782 101.138,7417.624 97.167,7418.981 C96.66,7419.082 96.48,7418.762 96.48,7418.489 C96.48,7418.151 96.492,7417.047 96.492,7415.675 C96.492,7414.719 96.172,7414.095 95.813,7413.777 C98.04,7413.523 100.38,7412.656 100.38,7408.718 C100.38,7407.598 99.992,7406.684 99.35,7405.966 C99.454,7405.707 99.797,7404.664 99.252,7403.252 C99.252,7403.252 98.414,7402.977 96.505,7404.303 C95.706,7404.076 94.85,7403.962 94,7403.958 C93.15,7403.962 92.295,7404.076 91.497,7404.303 C89.586,7402.977 88.746,7403.252 88.746,7403.252 C88.203,7404.664 88.546,7405.707 88.649,7405.966 C88.01,7406.684 87.619,7407.598 87.619,7408.718 C87.619,7412.646 89.954,7413.526 92.175,7413.785 C91.889,7414.041 91.63,7414.493 91.54,7415.156 C90.97,7415.418 89.522,7415.871 88.63,7414.304 C88.63,7414.304 88.101,7413.319 87.097,7413.247 C87.097,7413.247 86.122,7413.234 87.029,7413.87 C87.029,7413.87 87.684,7414.185 88.139,7415.37 C88.139,7415.37 88.726,7417.2 91.508,7416.58 C91.513,7417.437 91.522,7418.245 91.522,7418.489 C91.522,7418.76 91.338,7419.077 90.839,7418.982 C86.865,7417.627 84,7413.783 84,7409.253 C84,7403.59 88.478,7399 94,7399"
                                id="github-[#142]"> </path>
                        </g>
                    </g>
                </g>
            </g>
        </svg>
    </g>

    <g id="gitSvg">
        <svg viewBox="0 0 32 32" fill="none" xmlns="http://www.w3.org/2000/svg">
            <g id="SVGRepo_bgCarrier" stroke-width="0"></g>
            <g id="SVGRepo_tracerCarrier" stroke-linecap="round" stroke-linejoin="round"></g>
            <g id="SVGRepo_iconCarrier">
                <path
                    d="M2.58536 17.4132C1.80488 16.6327 1.80488 15.3673 2.58536 14.5868L14.5868 2.58536C15.3673 1.80488 16.6327 1.80488 17.4132 2.58536L29.4146 14.5868C30.1951 15.3673 30.1951 16.6327 29.4146 17.4132L17.4132 29.4146C16.6327 30.1951 15.3673 30.1951 14.5868 29.4146L2.58536 17.4132Z"
                    fill="#EE513B"></path>
                <path
                    d="M12.1489 5.06152L10.9336 6.27686L14.0725 9.41577C13.9455 9.68819 13.8746 9.99201 13.8746 10.3124C13.8746 11.222 14.4461 11.9981 15.2496 12.3012V19.9798C14.4461 20.2829 13.8746 21.059 13.8746 21.9686C13.8746 23.1422 14.826 24.0936 15.9996 24.0936C17.1732 24.0936 18.1246 23.1422 18.1246 21.9686C18.1246 21.144 17.6549 20.429 16.9684 20.0768V12.3117L19.9689 15.3122C19.8481 15.5791 19.7809 15.8754 19.7809 16.1874C19.7809 17.361 20.7323 18.3124 21.9059 18.3124C23.0795 18.3124 24.0309 17.361 24.0309 16.1874C24.0309 15.0138 23.0795 14.0624 21.9059 14.0624C21.6778 14.0624 21.4582 14.0983 21.2522 14.1648L18.0297 10.9423C18.0914 10.7433 18.1246 10.5317 18.1246 10.3124C18.1246 9.13878 17.1732 8.18738 15.9996 8.18738C15.7803 8.18738 15.5688 8.22061 15.3697 8.2823L12.1489 5.06152Z"
                    fill="white"></path>
            </g>
        </svg>
    </g>

    <g id="gmailSvg">
        <svg viewBox="0 0 32 32" fill="none" xmlns="http://www.w3.org/2000/svg">
            <g id="SVGRepo_bgCarrier" stroke-width="0"></g>
            <g id="SVGRepo_tracerCarrier" stroke-linecap="round" stroke-linejoin="round"></g>
            <g id="SVGRepo_iconCarrier">
                <path
                    d="M2 11.9556C2 8.47078 2 6.7284 2.67818 5.39739C3.27473 4.22661 4.22661 3.27473 5.39739 2.67818C6.7284 2 8.47078 2 11.9556 2H20.0444C23.5292 2 25.2716 2 26.6026 2.67818C27.7734 3.27473 28.7253 4.22661 29.3218 5.39739C30 6.7284 30 8.47078 30 11.9556V20.0444C30 23.5292 30 25.2716 29.3218 26.6026C28.7253 27.7734 27.7734 28.7253 26.6026 29.3218C25.2716 30 23.5292 30 20.0444 30H11.9556C8.47078 30 6.7284 30 5.39739 29.3218C4.22661 28.7253 3.27473 27.7734 2.67818 26.6026C2 25.2716 2 23.5292 2 20.0444V11.9556Z"
                    fill="white"></path>
                <path
                    d="M22.0515 8.52295L16.0644 13.1954L9.94043 8.52295V8.52421L9.94783 8.53053V15.0732L15.9954 19.8466L22.0515 15.2575V8.52295Z"
                    fill="#EA4335"></path>
                <path
                    d="M23.6231 7.38639L22.0508 8.52292V15.2575L26.9983 11.459V9.17074C26.9983 9.17074 26.3978 5.90258 23.6231 7.38639Z"
                    fill="#FBBC05"></path>
                <path
                    d="M22.0508 15.2575V23.9924H25.8428C25.8428 23.9924 26.9219 23.8813 26.9995 22.6513V11.459L22.0508 15.2575Z"
                    fill="#34A853"></path>
                <path d="M9.94811 24.0001V15.0732L9.94043 15.0669L9.94811 24.0001Z" fill="#C5221F"></path>
                <path
                    d="M9.94014 8.52404L8.37646 7.39382C5.60179 5.91001 5 9.17692 5 9.17692V11.4651L9.94014 15.0667V8.52404Z"
                    fill="#C5221F"></path>
                <path d="M9.94043 8.52441V15.0671L9.94811 15.0734V8.53073L9.94043 8.52441Z" fill="#C5221F"></path>
                <path
                    d="M5 11.4668V22.6591C5.07646 23.8904 6.15673 24.0003 6.15673 24.0003H9.94877L9.94014 15.0671L5 11.4668Z"
                    fill="#4285F4"></path>
            </g>
        </svg>
    </g>

    <g id="graphQlSvg">
        <svg viewBox="0 0 32 32" xmlns="http://www.w3.org/2000/svg" fill="#000000">
            <g id="SVGRepo_bgCarrier" stroke-width="0"></g>
            <g id="SVGRepo_tracerCarrier" stroke-linecap="round" stroke-linejoin="round"></g>
            <g id="SVGRepo_iconCarrier">
                <title>file_type_graphql</title>
                <rect x="-0.43" y="12.534" width="22.901" height="1.187"
                    transform="translate(-5.858 16.107) rotate(-59.999)" style="fill:#e10098"></rect>
                <rect x="4.545" y="21.162" width="22.902" height="1.187" style="fill:#e10098"></rect>
                <rect x="10.43" y="18.008" width="1.187" height="13.227"
                    transform="translate(-15.812 21.857) rotate(-59.999)" style="fill:#e10098"></rect>
                <rect x="20.381" y="0.771" width="1.187" height="13.227"
                    transform="translate(4.092 21.856) rotate(-59.999)" style="fill:#e10098"></rect>
                <rect x="4.412" y="6.787" width="13.227" height="1.187"
                    transform="translate(-2.213 6.502) rotate(-30.001)" style="fill:#e10098"></rect>
                <rect x="20.389" y="1.677" width="1.187" height="22.901"
                    transform="translate(-3.753 12.25) rotate(-30.001)" style="fill:#e10098"></rect>
                <rect x="5.454" y="9.386" width="1.187" height="13.228" style="fill:#e10098"></rect>
                <rect x="25.36" y="9.386" width="1.187" height="13.228" style="fill:#e10098"></rect>
                <rect x="15.222" y="24.097" width="11.504" height="1.037"
                    transform="translate(-9.498 13.785) rotate(-30.001)" style="fill:#e10098"></rect>
                <path d="M28.12,23a2.5,2.5,0,1,1-.915-3.411A2.5,2.5,0,0,1,28.12,23" style="fill:#e10098"></path>
                <path d="M8.2,11.5a2.5,2.5,0,1,1-.915-3.411A2.5,2.5,0,0,1,8.2,11.5" style="fill:#e10098"></path>
                <path d="M3.88,23a2.5,2.5,0,1,1,3.411.915A2.5,2.5,0,0,1,3.88,23" style="fill:#e10098"></path>
                <path d="M23.8,11.5a2.5,2.5,0,1,1,3.411.915A2.5,2.5,0,0,1,23.8,11.5" style="fill:#e10098"></path>
                <path d="M16,30a2.5,2.5,0,1,1,2.5-2.5A2.493,2.493,0,0,1,16,30" style="fill:#e10098"></path>
                <path d="M16,6.991a2.5,2.5,0,1,1,2.5-2.5,2.493,2.493,0,0,1-2.5,2.5" style="fill:#e10098"></path>
            </g>
        </svg>
    </g>

    <g id="html5Svg">
        <svg viewBox="0 0 32 32" fill="none" xmlns="http://www.w3.org/2000/svg">
            <g id="SVGRepo_bgCarrier" stroke-width="0"></g>
            <g id="SVGRepo_tracerCarrier" stroke-linecap="round" stroke-linejoin="round"></g>
            <g id="SVGRepo_iconCarrier">
                <path d="M6 28L4 3H28L26 28L16 31L6 28Z" fill="#E44D26"></path>
                <path d="M26 5H16V29.5L24 27L26 5Z" fill="#F16529"></path>
                <path
                    d="M9.5 17.5L8.5 8H24L23.5 11H11.5L12 14.5H23L22 24L16 26L10 24L9.5 19H12.5L13 21.5L16 22.5L19 21.5L19.5 17.5H9.5Z"
                    fill="white"></path>
            </g>
        </svg>
    </g>

    <g id="javascriptSvgrepoCom">
        <svg xmlns="http://www.w3.org/2000/svg" aria-label="JavaScript" role="img" viewBox="0 0 512 512" fill="#000000">
            <g id="SVGRepo_bgCarrier" stroke-width="0"></g>
            <g id="SVGRepo_tracerCarrier" stroke-linecap="round" stroke-linejoin="round"></g>
            <g id="SVGRepo_iconCarrier">
                <rect width="512" height="512" rx="15%" fill="#f7df1e"></rect>
                <path
                    d="M324 370c10 17 24 29 47 29c20 0 33-10 33 -24c0-16 -13 -22 -35 -32l-12-5c-35-15 -58 -33 -58 -72c0-36 27 -64 70 -64c31 0 53 11 68 39l-37 24c-8-15 -17 -21 -31 -21c-14 0-23 9 -23 21c0 14 9 20 30 29l12 5c41 18 64 35 64 76c0 43-34 67 -80 67c-45 0-74 -21 -88 -49zm-170 4c8 13 14 25 31 25c16 0 26-6 26 -30V203h48v164c0 50-29 72 -72 72c-39 0-61 -20 -72 -44z">
                </path>
            </g>
        </svg>
    </g>

    <g id="linkedinSvg">
        <svg viewBox="0 0 48 48" fill="none" xmlns="http://www.w3.org/2000/svg">
            <g id="SVGRepo_bgCarrier" stroke-width="0"></g>
            <g id="SVGRepo_tracerCarrier" stroke-linecap="round" stroke-linejoin="round"></g>
            <g id="SVGRepo_iconCarrier">
                <circle cx="24" cy="24" r="20" fill="#0077B5"></circle>
                <path fill-rule="evenodd" clip-rule="evenodd"
                    d="M18.7747 14.2839C18.7747 15.529 17.8267 16.5366 16.3442 16.5366C14.9194 16.5366 13.9713 15.529 14.0007 14.2839C13.9713 12.9783 14.9193 12 16.3726 12C17.8267 12 18.7463 12.9783 18.7747 14.2839ZM14.1199 32.8191V18.3162H18.6271V32.8181H14.1199V32.8191Z"
                    fill="white"></path>
                <path fill-rule="evenodd" clip-rule="evenodd"
                    d="M22.2393 22.9446C22.2393 21.1357 22.1797 19.5935 22.1201 18.3182H26.0351L26.2432 20.305H26.3322C26.9254 19.3854 28.4079 17.9927 30.8101 17.9927C33.7752 17.9927 35.9995 19.9502 35.9995 24.219V32.821H31.4922V24.7838C31.4922 22.9144 30.8404 21.6399 29.2093 21.6399C27.9633 21.6399 27.2224 22.4999 26.9263 23.3297C26.8071 23.6268 26.7484 24.0412 26.7484 24.4574V32.821H22.2411V22.9446H22.2393Z"
                    fill="white"></path>
            </g>
        </svg>
    </g>

    <g id="TypeScript">
        <svg viewBox="0 0 256 256" version="1.1" xmlns="http://www.w3.org/2000/svg"
            xmlns:xlink="http://www.w3.org/1999/xlink" preserveAspectRatio="xMidYMid" fill="#000000">
            <g id="SVGRepo_bgCarrier" stroke-width="0"></g>
            <g id="SVGRepo_tracerCarrier" stroke-linecap="round" stroke-linejoin="round"></g>
            <g id="SVGRepo_iconCarrier">
                <g>
                    <polygon fill="#007ACC"
                        transform="translate(128.000000, 128.000000) scale(1, -1) translate(-128.000000, -128.000000) "
                        points="0 128 0 0 128 0 256 0 256 128 256 256 128 256 0 256"> </polygon>
                    <path
                        d="M146.658132,223.436863 L146.739401,212.953054 L130.079084,212.953054 L113.418767,212.953054 L113.418767,165.613371 L113.418767,118.273689 L101.63464,118.273689 L89.8505126,118.273689 L89.8505126,165.613371 L89.8505126,212.953054 L73.1901951,212.953054 L56.5298776,212.953054 L56.5298776,223.233689 C56.5298776,228.922577 56.6517824,233.676863 56.8143221,233.798768 C56.9362269,233.961308 77.2130522,234.042577 101.797179,234.001943 L146.536227,233.880038 L146.658132,223.436863 Z"
                        fill="#FFFFFF"
                        transform="translate(101.634640, 176.142993) rotate(-180.000000) translate(-101.634640, -176.142993) ">
                    </path>
                    <path
                        d="M206.566631,234.272145 C213.068219,232.646748 218.025679,229.761668 222.57679,225.048018 C224.933616,222.528653 228.428219,217.936907 228.712663,216.839764 C228.793933,216.514684 217.659965,209.037859 210.914568,204.852462 C210.670758,204.689922 209.69552,205.74643 208.598377,207.371827 C205.306949,212.166748 201.852981,214.239129 196.570441,214.604843 C188.809171,215.133097 183.811076,211.069605 183.851711,204.283573 C183.851711,202.292462 184.136155,201.114049 184.948854,199.488653 C186.65552,195.953414 189.825044,193.840399 199.7806,189.533097 C218.106949,181.649922 225.949489,176.448653 230.825679,169.053097 C236.270758,160.804208 237.489806,147.638494 233.792028,137.845478 C229.728536,127.199129 219.651076,119.966113 205.469489,117.568653 C201.080917,116.796589 190.678377,116.918494 185.964727,117.771827 C175.684092,119.600399 165.931711,124.679764 159.917743,131.343891 C157.560917,133.944526 152.969171,140.730557 153.253616,141.218176 C153.37552,141.380716 154.432028,142.030875 155.610441,142.721668 C156.748219,143.371827 161.05552,145.850557 165.119012,148.207383 L172.473933,152.474049 L174.01806,150.198494 C176.171711,146.907065 180.885362,142.396589 183.729806,140.893097 C191.897425,136.585795 203.112663,137.195319 208.639012,142.15278 C210.995838,144.30643 211.971076,146.541351 211.971076,149.83278 C211.971076,152.799129 211.605362,154.099446 210.061235,156.334367 C208.070123,159.178811 204.006631,161.576272 192.466314,166.574367 C179.259965,172.263256 173.571076,175.798494 168.369806,181.406113 C165.362822,184.656907 162.518377,189.858176 161.339965,194.206113 C160.364727,197.822621 160.120917,206.884208 160.892981,210.541351 C163.61552,223.300716 173.245996,232.199764 187.143139,234.841034 C191.653616,235.694367 202.137425,235.369287 206.566631,234.272145 Z"
                        fill="#FFFFFF"
                        transform="translate(194.578507, 176.190240) scale(1, -1) translate(-194.578507, -176.190240) ">
                    </path>
                </g>
            </g>
        </svg>
    </g>

    <g id="NPM"><svg viewBox="0 0 16 16" fill="none" xmlns="http://www.w3.org/2000/svg">
            <g id="SVGRepo_bgCarrier" stroke-width="0"></g>
            <g id="SVGRepo_tracerCarrier" stroke-linecap="round" stroke-linejoin="round"></g>
            <g id="SVGRepo_iconCarrier">
                <path fill-rule="nonzero" clip-rule="nonzero"
                    d="M1 2.88462C1 1.84377 1.84377 1 2.88462 1H13.1154C14.1562 1 15 1.84377 15 2.88462V13.1154C15 14.1562 14.1562 15 13.1154 15H2.88462C1.84377 15 1 14.1562 1 13.1154V2.88462ZM2.88462 2.61538C2.73592 2.61538 2.61538 2.73592 2.61538 2.88462V13.1154C2.61538 13.2641 2.73592 13.3846 2.88462 13.3846H8.53846V6.38462C8.53846 5.93854 8.90008 5.57692 9.34615 5.57692C9.79223 5.57692 10.1538 5.93854 10.1538 6.38462V13.3846H13.1154C13.2641 13.3846 13.3846 13.2641 13.3846 13.1154V2.88462C13.3846 2.73592 13.2641 2.61538 13.1154 2.61538H2.88462Z"
                    fill="#000000"></path>
            </g>
        </svg>
    </g>

    <g id="reactSvg">
        <svg viewBox="0 -14 256 256" version="1.1" xmlns="http://www.w3.org/2000/svg"
            xmlns:xlink="http://www.w3.org/1999/xlink" preserveAspectRatio="xMidYMid" fill="#000000">
            <g id="SVGRepo_bgCarrier" stroke-width="0"></g>
            <g id="SVGRepo_tracerCarrier" stroke-linecap="round" stroke-linejoin="round"></g>
            <g id="SVGRepo_iconCarrier">
                <g>
                    <path
                        d="M210.483381,73.8236374 C207.827698,72.9095503 205.075867,72.0446761 202.24247,71.2267368 C202.708172,69.3261098 203.135596,67.4500894 203.515631,65.6059664 C209.753843,35.3248922 205.675082,10.9302478 191.747328,2.89849283 C178.392359,-4.80289661 156.551327,3.22703567 134.492936,22.4237776 C132.371761,24.2697233 130.244662,26.2241201 128.118477,28.2723861 C126.701777,26.917204 125.287358,25.6075897 123.876584,24.3549348 C100.758745,3.82852863 77.5866802,-4.82157937 63.6725966,3.23341515 C50.3303869,10.9571328 46.3792156,33.8904224 51.9945178,62.5880206 C52.5367729,65.3599011 53.1706189,68.1905639 53.8873982,71.068617 C50.6078941,71.9995641 47.4418534,72.9920277 44.4125156,74.0478303 C17.3093297,83.497195 0,98.3066828 0,113.667995 C0,129.533287 18.5815786,145.446423 46.8116526,155.095373 C49.0394553,155.856809 51.3511025,156.576778 53.7333796,157.260293 C52.9600965,160.37302 52.2875179,163.423318 51.7229345,166.398431 C46.3687351,194.597975 50.5500231,216.989464 63.8566899,224.664425 C77.6012619,232.590464 100.66852,224.443422 123.130185,204.809231 C124.905501,203.257196 126.687196,201.611293 128.472081,199.886102 C130.785552,202.113904 133.095375,204.222319 135.392897,206.199955 C157.14963,224.922338 178.637969,232.482469 191.932332,224.786092 C205.663234,216.837268 210.125675,192.78347 204.332202,163.5181 C203.88974,161.283006 203.374826,158.99961 202.796573,156.675661 C204.416503,156.196743 206.006814,155.702335 207.557482,155.188332 C236.905331,145.46465 256,129.745175 256,113.667995 C256,98.2510906 238.132466,83.3418093 210.483381,73.8236374 L210.483381,73.8236374 Z M204.118035,144.807565 C202.718197,145.270987 201.281904,145.718918 199.818271,146.153177 C196.578411,135.896354 192.205739,124.989735 186.854729,113.72131 C191.961041,102.721277 196.164656,91.9540963 199.313837,81.7638014 C201.93261,82.5215915 204.474374,83.3208483 206.923636,84.1643056 C230.613348,92.3195488 245.063763,104.377206 245.063763,113.667995 C245.063763,123.564379 229.457753,136.411268 204.118035,144.807565 L204.118035,144.807565 Z M193.603754,165.642007 C196.165567,178.582766 196.531475,190.282717 194.834536,199.429057 C193.309843,207.64764 190.243595,213.12715 186.452366,215.321689 C178.384612,219.991462 161.131788,213.921395 142.525146,197.909832 C140.392124,196.074366 138.243609,194.114502 136.088259,192.040261 C143.301619,184.151133 150.510878,174.979732 157.54698,164.793993 C169.922699,163.695814 181.614905,161.900447 192.218042,159.449363 C192.740247,161.555956 193.204126,163.621993 193.603754,165.642007 L193.603754,165.642007 Z M87.2761866,214.514686 C79.3938934,217.298414 73.1160375,217.378157 69.3211631,215.189998 C61.2461189,210.532528 57.8891498,192.554265 62.4682434,168.438039 C62.9927272,165.676183 63.6170041,162.839142 64.3365173,159.939216 C74.8234575,162.258154 86.4299951,163.926841 98.8353334,164.932519 C105.918826,174.899534 113.336329,184.06091 120.811247,192.08264 C119.178102,193.65928 117.551336,195.16028 115.933685,196.574699 C106.001303,205.256705 96.0479605,211.41654 87.2761866,214.514686 L87.2761866,214.514686 Z M50.3486141,144.746959 C37.8658105,140.48046 27.5570398,134.935332 20.4908634,128.884403 C14.1414664,123.446815 10.9357817,118.048415 10.9357817,113.667995 C10.9357817,104.34622 24.8334611,92.4562517 48.0123604,84.3748281 C50.8247961,83.3942121 53.7689223,82.4701001 56.8242337,81.6020363 C60.0276398,92.0224477 64.229889,102.917218 69.3011135,113.93411 C64.1642716,125.11459 59.9023288,136.182975 56.6674809,146.725506 C54.489347,146.099407 52.3791089,145.440499 50.3486141,144.746959 L50.3486141,144.746959 Z M62.7270678,60.4878073 C57.9160346,35.9004118 61.1112387,17.3525532 69.1516515,12.6982729 C77.7160924,7.74005624 96.6544653,14.8094222 116.614922,32.5329619 C117.890816,33.6657739 119.171723,34.8514442 120.456275,36.0781256 C113.018267,44.0647686 105.66866,53.1573386 98.6480514,63.0655695 C86.6081646,64.1815215 75.0831931,65.9741531 64.4868907,68.3746571 C63.8206914,65.6948233 63.2305903,63.0619242 62.7270678,60.4878073 L62.7270678,60.4878073 Z M173.153901,87.7550367 C170.620796,83.3796304 168.020249,79.1076627 165.369124,74.9523483 C173.537126,75.9849113 181.362914,77.3555864 188.712066,79.0329319 C186.505679,86.1041206 183.755673,93.4974728 180.518546,101.076741 C178.196419,96.6680702 175.740322,92.2229454 173.153901,87.7550367 L173.153901,87.7550367 Z M128.122121,43.8938899 C133.166461,49.3588189 138.218091,55.4603279 143.186789,62.0803968 C138.179814,61.8439007 133.110868,61.720868 128.000001,61.720868 C122.937434,61.720868 117.905854,61.8411667 112.929865,62.0735617 C117.903575,55.515009 122.99895,49.4217021 128.122121,43.8938899 L128.122121,43.8938899 Z M82.8018984,87.830679 C80.2715265,92.2183886 77.8609975,96.6393627 75.5753239,101.068539 C72.3906004,93.5156998 69.6661103,86.0886276 67.440586,78.9171899 C74.7446255,77.2826781 82.5335049,75.9461789 90.6495601,74.9332099 C87.9610684,79.1268011 85.3391054,83.4302106 82.8018984,87.8297677 L82.8018984,87.830679 L82.8018984,87.830679 Z M90.8833221,153.182899 C82.4979621,152.247395 74.5919739,150.979704 67.289757,149.390303 C69.5508242,142.09082 72.3354636,134.505173 75.5876271,126.789657 C77.8792246,131.215644 80.2993228,135.638441 82.8451877,140.03572 L82.8456433,140.03572 C85.4388987,144.515476 88.1255676,148.90364 90.8833221,153.182899 L90.8833221,153.182899 Z M128.424691,184.213105 C123.24137,178.620587 118.071264,172.434323 113.021912,165.780078 C117.923624,165.972373 122.921029,166.0708 128.000001,166.0708 C133.217953,166.0708 138.376211,165.953235 143.45336,165.727219 C138.468257,172.501308 133.434855,178.697141 128.424691,184.213105 L128.424691,184.213105 Z M180.622896,126.396409 C184.044571,134.195313 186.929004,141.741317 189.219234,148.9164 C181.796719,150.609693 173.782736,151.973534 165.339049,152.986959 C167.996555,148.775595 170.619884,144.430263 173.197646,139.960532 C175.805484,135.438399 178.28163,130.90943 180.622896,126.396409 L180.622896,126.396409 Z M163.724586,134.496971 C159.722835,141.435557 155.614455,148.059271 151.443648,154.311611 C143.847063,154.854776 135.998946,155.134562 128.000001,155.134562 C120.033408,155.134562 112.284171,154.887129 104.822013,154.402745 C100.48306,148.068386 96.285368,141.425078 92.3091341,134.556664 L92.3100455,134.556664 C88.3442923,127.706935 84.6943232,120.799333 81.3870228,113.930466 C84.6934118,107.045648 88.3338117,100.130301 92.276781,93.292874 L92.2758697,93.294241 C96.2293193,86.4385872 100.390102,79.8276317 104.688954,73.5329157 C112.302398,72.9573964 120.109505,72.6571055 127.999545,72.6571055 L128.000001,72.6571055 C135.925583,72.6571055 143.742714,72.9596746 151.353879,73.5402067 C155.587114,79.7888993 159.719645,86.3784378 163.688588,93.2350031 C167.702644,100.168578 171.389978,107.037901 174.724618,113.77508 C171.400003,120.627999 167.720871,127.566587 163.724586,134.496971 L163.724586,134.496971 Z M186.284677,12.3729198 C194.857321,17.3165548 198.191049,37.2542268 192.804953,63.3986692 C192.461372,65.0669011 192.074504,66.7661189 191.654369,68.4881206 C181.03346,66.0374921 169.500286,64.2138746 157.425315,63.0810626 C150.391035,53.0639249 143.101577,43.9572289 135.784778,36.073113 C137.751934,34.1806885 139.716356,32.3762092 141.672575,30.673346 C160.572216,14.2257007 178.236518,7.73185406 186.284677,12.3729198 L186.284677,12.3729198 Z M128.000001,90.8080696 C140.624975,90.8080696 150.859926,101.042565 150.859926,113.667995 C150.859926,126.292969 140.624975,136.527922 128.000001,136.527922 C115.375026,136.527922 105.140075,126.292969 105.140075,113.667995 C105.140075,101.042565 115.375026,90.8080696 128.000001,90.8080696 L128.000001,90.8080696 Z"
                        fill="#00D8FF"> </path>
                </g>
            </g>
        </svg>
    </g>

    <g id="reduxSvg">
        <svg viewBox="0 0 32 32" fill="none" xmlns="http://www.w3.org/2000/svg">
            <g id="SVGRepo_bgCarrier" stroke-width="0"></g>
            <g id="SVGRepo_tracerCarrier" stroke-linecap="round" stroke-linejoin="round"></g>
            <g id="SVGRepo_iconCarrier">
                <path
                    d="M21.7868 21.556C22.8939 21.4433 23.7338 20.505 23.6956 19.3789C23.6575 18.253 22.703 17.3522 21.5577 17.3522H21.4814C20.2978 17.3897 19.3817 18.3656 19.4199 19.5291C19.4581 20.0921 19.6871 20.58 20.0307 20.9178C18.7327 23.4326 16.7475 25.2717 13.7698 26.8106C11.7464 27.8615 9.6468 28.2369 7.54715 27.9742C5.82918 27.749 4.49301 26.9984 3.65301 25.7596C2.43144 23.9205 2.31695 21.9312 3.34773 19.942C4.07312 18.5157 5.21828 17.4647 5.94367 16.9392C5.79098 16.4513 5.56187 15.6256 5.44738 15.0251C-0.0882044 18.9661 0.484491 24.2959 2.16426 26.8106C3.42402 28.6873 5.98187 29.8509 8.80691 29.8509C9.57039 29.8509 10.3339 29.7757 11.0975 29.5882C15.9841 28.6498 19.6872 25.7972 21.7868 21.556ZM28.5059 16.9018C25.6045 13.5613 21.3287 11.7222 16.4421 11.7222H15.8314C15.4878 11.0466 14.7624 10.5961 13.9607 10.5961H13.8843C12.7009 10.6337 11.7848 11.6095 11.8229 12.7731C11.8611 13.8991 12.8154 14.7999 13.9607 14.7999H14.037C14.8769 14.7624 15.6023 14.2369 15.9077 13.5237H16.5948C19.4963 13.5237 22.2449 14.3494 24.7265 15.9634C26.6352 17.202 28.0096 18.816 28.7731 20.7677C29.4221 22.3441 29.3839 23.883 28.6967 25.1967C27.6278 27.1859 25.8336 28.2744 23.4666 28.2744C21.9395 28.2744 20.4889 27.824 19.7253 27.4862C19.3054 27.8615 18.5418 28.462 18.0073 28.8375C19.649 29.5881 21.3287 30.001 22.9321 30.001C26.597 30.001 29.3076 28.0116 30.3384 26.0224C31.4454 23.8454 31.369 20.0921 28.5059 16.9018ZM9.1123 22.1939C9.15051 23.3199 10.1049 24.2206 11.2502 24.2206H11.3266C12.51 24.1832 13.4262 23.2073 13.388 22.0438C13.3499 20.9177 12.3954 20.017 11.2502 20.017H11.1739C11.0975 20.017 10.9829 20.017 10.9067 20.0544C9.3414 17.5022 8.69242 14.7248 8.92152 11.7221C9.0741 9.47006 9.83769 7.51828 11.1739 5.9043C12.2809 4.51555 14.4188 3.83996 15.8696 3.80252C19.9162 3.7274 21.634 8.68179 21.7486 10.6711C22.2449 10.7837 23.0848 11.0465 23.6575 11.2342C23.1993 5.15382 19.3817 2.00098 15.7169 2.00098C12.2809 2.00098 9.1123 4.44067 7.85242 8.04387C6.09637 12.8481 7.24164 17.4647 9.37949 21.1055C9.18871 21.3682 9.0741 21.7811 9.1123 22.194V22.1939Z"
                    fill="#764ABC"></path>
            </g>
        </svg>
    </g>

    <g id="sassSvg">
        <svg xmlns="http://www.w3.org/2000/svg" aria-label="Sass" role="img" viewBox="0 0 512 512" fill="#000000">
            <g id="SVGRepo_bgCarrier" stroke-width="0"></g>
            <g id="SVGRepo_tracerCarrier" stroke-linecap="round" stroke-linejoin="round"></g>
            <g id="SVGRepo_iconCarrier">
                <rect width="512" height="512" rx="15%" fill="#c69"></rect>
                <path
                    d="M258,88c-96,33-158,100-152,140s66,72,93,93h0c-35,18-79,45-78,80,2,48,54,33,76,19s44-53,30-94c31-8,58,2,66,8,31,22,15,47,4,51s-4,6,3,4,22-12,22-29c0-43-46-63-103-48-33-35-78-51-76-89,1-14,6-50,95-95s152-27,144,14c-12,62-120,104-158,68-2-4-9-7-5,4,20,50,182,27,189-79C410,79,329,64,258,88ZM172,408c-25,8-24-8-23-14,3-17,17-38,59-59C220,373,193,402,172,408Z"
                    fill="#ffffff"></path>
            </g>
        </svg>
    </g>

    <g id="styledComponentSvg">
        <svg width="auto" height="auto" viewBox="0 0 120 120" fill="none" xmlns="http://www.w3.org/2000/svg">
            <path
                d="M68.7673 118.279C68.9473 117.872 69.4015 117.589 69.7315 117.246C74.7666 111.967 79.8446 106.735 84.8111 101.391C86.3653 99.9558 87.5662 98.1804 88.32 96.2036C89.0739 94.2269 89.3601 92.1026 89.1563 89.9968C89.0004 89.0951 88.7958 88.2025 88.5435 87.3229C87.1894 88.6084 85.9296 89.7783 84.6611 90.9567C82.6899 92.7908 80.7273 94.6334 78.739 96.4461C77.5665 97.6415 76.059 98.4531 74.4156 98.7737C72.7721 99.0943 71.0701 98.9087 69.5344 98.2416C67.9797 97.6705 66.627 96.6553 65.6443 95.3221C64.6616 93.9889 64.092 92.3965 64.0064 90.7425C63.9604 90.5297 63.8988 90.3206 63.8222 90.1168C62.3095 91.4024 60.8611 92.5851 59.4256 93.8021L29.5877 119.085C29.382 119.261 29.1591 119.479 28.9663 119.65H68.7459L68.6859 119.612C68.4716 119.462 68.583 118.673 68.7673 118.279Z"
                fill="#FFCEBF" />
            <path
                d="M27.1436 118.279C27.4974 117.818 27.9245 117.418 28.4077 117.096L69.7 82.0642C72.5168 79.6731 75.3207 77.2691 78.1118 74.8522C78.4567 74.6118 78.727 74.2791 78.8918 73.8924C79.5594 70.9831 79.654 67.9717 79.1703 65.0263C78.7418 65.3262 78.5104 65.4548 78.3132 65.6648C74.9322 68.6901 71.5683 71.7412 68.1702 74.7494C67.0445 75.8824 65.5885 76.6292 64.0116 76.8825C62.4346 77.1359 60.818 76.8826 59.3941 76.1592C57.9414 75.4734 56.7256 74.3709 55.9014 72.992C55.0773 71.6131 54.682 70.0201 54.766 68.4159V67.0275C54.1447 67.4817 53.6905 67.7859 53.2662 68.1287C36.7396 81.3615 20.2159 94.5842 3.69496 107.797C2.94933 108.393 2.05801 109.721 1.08098 108.431C0.103957 107.141 1.59092 106.61 2.34083 106.01C19.953 91.8774 37.5738 77.7576 55.2031 63.6507C58.0742 61.3496 58.2628 60.3854 56.3944 56.7301L55.2803 57.7757C52.2249 60.6168 49.1353 63.4193 46.1271 66.3075C44.8931 67.4978 43.3476 68.3148 41.6691 68.6641C39.9906 69.0135 38.2476 68.8809 36.6412 68.2818C35.0348 67.6827 33.6306 66.6415 32.5908 65.2784C31.5509 63.9153 30.9178 62.2858 30.7646 60.5782C30.1947 61.0067 29.7019 61.3196 29.2348 61.6838L3.09503 81.9443C2.64419 82.3864 2.13005 82.7591 1.5695 83.0498C1.14643 83.1777 0.692134 83.155 0.283936 82.9856V119.671H27.0922C26.9925 119.451 26.9453 119.21 26.9542 118.969C26.9631 118.727 27.028 118.491 27.1436 118.279Z"
                fill="#FFCEBF" />
            <path
                d="M99.5652 1.82096C98.8367 4.20782 98.1297 6.59897 97.4912 9.01154C96.9014 10.7164 96.97 12.5802 97.6836 14.2371C98.3971 15.8941 99.704 17.2246 101.348 17.9676C106.376 20.6107 112.042 21.798 117.709 21.3958V2.22806C117.646 1.80781 117.669 1.37914 117.777 0.968207C117.897 0.73576 118.049 0.520916 118.227 0.329712H99.5481C99.8352 0.663958 99.7366 1.25103 99.5652 1.82096Z"
                fill="#FF6196" />
            <path
                d="M62.051 42.9976C61.9621 45.137 61.2137 47.1966 59.9084 48.894C55.2418 54.9179 49.8828 60.3719 43.9417 65.1435C42.9836 66.0304 41.7693 66.591 40.4728 66.745C39.1764 66.8989 37.8646 66.6383 36.7254 66.0005C35.5916 65.5161 34.6356 64.6925 33.9887 63.6428C33.3419 62.5932 33.036 61.369 33.113 60.1384C33.2502 58.627 33.8777 57.202 34.8999 56.0803C41.5434 49.7455 48.7414 44.019 56.4074 38.9695C56.9094 38.5758 57.5226 38.3499 58.1601 38.3237C58.7976 38.2976 59.4272 38.4725 59.9598 38.8238C60.6598 39.2585 61.2258 39.8786 61.5949 40.6153C61.9641 41.352 62.1219 42.1766 62.051 42.9976Z"
                fill="#FF87AF" />
            <path
                d="M56.9126 68.97C56.8131 68.0228 56.9347 67.0654 57.2678 66.1731C57.6009 65.2809 58.1365 64.478 58.8324 63.8277C65.3372 57.8281 72.3163 52.3638 79.7013 47.4883C79.9241 47.3468 80.1298 47.2054 80.3741 47.0597C81.0192 46.594 81.8008 46.356 82.5959 46.3832C83.3911 46.4103 84.1546 46.7011 84.7664 47.2097C85.3584 47.7112 85.7772 48.3865 85.9634 49.1396C86.1496 49.8928 86.0936 50.6854 85.8034 51.4049C84.8691 54.5168 83.1448 57.3337 80.7983 59.5811C76.0329 64.2758 71.1753 68.8762 66.2286 73.3795C65.4836 74.1456 64.5051 74.6422 63.4469 74.7911C62.3888 74.9401 61.3111 74.7329 60.3836 74.2022C59.409 73.6958 58.5791 72.9499 57.9719 72.0347C57.3648 71.1194 57.0002 70.0648 56.9126 68.97Z"
                fill="#FF87AF" />
            <path
                d="M87.8344 71.8015C86.6346 73.0871 85.4004 74.3126 84.2477 75.6282C83.9011 76.1367 83.6136 76.683 83.3907 77.2566C84.0249 77.4451 84.7662 77.9422 85.2804 77.7665C87.8987 76.888 90.4527 75.8339 93.3281 74.724C92.7024 76.1638 92.231 77.4922 91.5668 78.7092C88.8305 83.3078 85.4038 87.4587 81.4066 91.0164C79.8868 92.4819 78.3084 93.8832 76.6715 95.2201C75.8046 95.9395 74.7622 96.4157 73.6509 96.6001C72.5396 96.7844 71.3992 96.6702 70.3465 96.2692C69.2938 95.8681 68.3665 95.1947 67.6595 94.3176C66.9525 93.4406 66.4912 92.3916 66.3227 91.2778C66.254 90.6585 66.3087 90.0317 66.4838 89.4337C66.6589 88.8357 66.9507 88.2784 67.3426 87.7939C73.174 81.4614 79.8384 75.9503 87.1531 71.4115C87.242 71.3771 87.3363 71.3582 87.4316 71.3558L87.8344 71.8015Z"
                fill="#FF87AF" />
            <path
                d="M97.6724 54.7335L105.004 22.1659L110.147 23.37L107.494 31.4305C105.017 38.9296 102.51 46.4287 100.093 53.9364C99.6221 55.3248 99.0051 55.5819 97.6724 54.7335Z"
                fill="#FF6196" />
            <path
                d="M89.3857 73.8885C90.1614 70.9274 90.9327 68.1892 91.5841 65.421C92.2189 62.7364 93.4263 60.2207 95.1236 58.0461C96.1649 56.6791 97.3348 57.2234 98.5304 57.519C99.636 57.789 99.9145 58.5989 99.9616 59.6616C100.136 62.6005 99.241 65.5031 97.4419 67.8335C95.3002 70.4887 92.5317 72.5695 89.3857 73.8885Z"
                fill="#FF6196" />
            <path
                d="M119.944 3.83936C120.008 2.88498 119.983 1.92674 119.871 0.976845C119.783 0.711516 119.607 0.483621 119.374 0.329779C119.184 0.175101 118.961 0.0652523 118.723 0.00838844C118.585 -0.0173228 118.393 0.124089 118.208 0.325493C118.03 0.516698 117.878 0.731542 117.758 0.96399C117.65 1.37492 117.627 1.80359 117.69 2.22384V21.3873C112.023 21.7895 106.357 20.6022 101.329 17.9591C99.685 17.2161 98.3781 15.8856 97.6646 14.2286C96.951 12.5717 96.8824 10.7079 97.4722 9.00304C98.1107 6.59046 98.8178 4.19932 99.5462 1.81246C99.7177 1.24253 99.8162 0.655454 99.5462 0.321208C99.3961 0.158494 99.1888 0.0602123 98.9677 0.0469556C98.6847 0.0500088 98.4105 0.146413 98.1878 0.321208C97.8674 0.512888 97.6121 0.796593 97.4551 1.1354C96.598 3.70652 95.8438 6.30336 95.1882 8.9259C94.9407 9.95936 94.874 11.0279 94.9911 12.0841C95.1569 13.9952 95.8676 15.8186 97.0389 17.3377C98.2102 18.8569 99.7928 20.0081 101.599 20.6545C102.409 20.993 102.884 21.3273 102.657 22.3943C102.344 23.7484 102.04 25.1026 101.732 26.461C99.632 35.6656 97.5436 44.8745 95.4667 54.0877C95.4082 54.4985 95.2275 54.8822 94.9482 55.189C93.5793 56.2771 92.4291 57.6148 91.5586 59.1314C90.4493 61.1327 89.6817 63.3052 89.2875 65.5592C89.2118 66.2782 88.952 66.9655 88.5331 67.5548C88.1143 68.144 87.5505 68.6153 86.8963 68.9231C85.1094 69.8273 83.4682 70.9971 81.4841 72.2141C81.6164 69.8282 81.5906 67.4361 81.407 65.0535C81.256 64.3206 81.288 63.5618 81.5003 62.8442C81.7126 62.1267 82.0985 61.4725 82.624 60.9397C85.2375 58.3506 87.1005 55.1015 88.0148 51.538C88.2878 50.712 88.3627 49.8333 88.2333 48.9729C88.104 48.1126 87.774 47.2948 87.27 46.5856C86.7661 45.8764 86.1023 45.2957 85.3325 44.8905C84.5626 44.4853 83.7081 44.267 82.8382 44.2531C81.4298 44.2374 80.047 44.6304 78.8573 45.3844C74.7683 48.1767 70.7504 51.0715 66.8073 54.0663C64.4633 55.8318 62.2564 57.7858 59.9852 59.637C59.8873 59.5319 59.8025 59.4154 59.7324 59.2899C59.689 58.9744 59.604 58.6661 59.4796 58.3729C57.5812 55.4418 58.8968 53.3121 60.958 51.1223C63.1053 48.8714 64.2919 45.8727 64.2661 42.7619C64.3327 41.1769 63.8363 39.6194 62.8649 38.3653C62.3474 37.7286 61.7096 37.2001 60.988 36.8097C59.9629 36.2487 58.7908 36.0145 57.6289 36.1386C56.467 36.2627 55.3708 36.7391 54.4873 37.5039L53.2917 38.361C50.5621 40.315 47.7981 42.2177 45.1713 44.3089C41.3364 47.3705 37.5841 50.5341 33.9183 53.7963C32.2042 55.309 30.953 57.3744 29.1746 58.78C19.9014 66.1034 10.5297 73.294 1.1922 80.5317C0.871132 80.7232 0.575909 80.9551 0.313735 81.2216C0.286745 81.2606 0.263774 81.3023 0.245172 81.3459C0.0480521 81.8044 -0.119071 82.5629 0.112331 82.8414C0.169054 82.9019 0.23761 82.95 0.313735 82.9828C0.721934 83.1523 1.17623 83.175 1.5993 83.0471C2.15985 82.7563 2.67399 82.3837 3.12483 81.9415L29.2646 61.6811C29.7317 61.3168 30.2245 60.9869 30.7944 60.5755C30.9476 62.2831 31.5807 63.9125 32.6206 65.2757C33.6604 66.6388 35.0646 67.68 36.671 68.2791C38.2774 68.8782 40.0204 69.0107 41.6989 68.6614C43.3774 68.312 44.9229 67.4951 46.1569 66.3048C49.1565 63.4166 52.2547 60.6141 55.3101 57.773L56.4242 56.7274C58.2926 60.3827 58.104 61.3468 55.2329 63.648C37.5893 77.7663 19.9585 91.8875 2.34064 106.012C1.59073 106.611 0.108046 107.156 1.08079 108.433C2.05353 109.71 2.94914 108.394 3.69476 107.798C20.2242 94.5972 36.7423 81.3787 53.2489 68.1432C53.6774 67.8003 54.1273 67.4961 54.7487 67.0419V68.4303C54.6647 70.0345 55.0599 71.6275 55.8841 73.0064C56.7082 74.3853 57.924 75.4879 59.3767 76.1736C60.8007 76.897 62.4173 77.1503 63.9942 76.897C65.5711 76.6436 67.0271 75.8968 68.1528 74.7638C71.551 71.7642 74.9149 68.7045 78.2959 65.6792C78.5102 65.4863 78.7587 65.3406 79.153 65.0407C79.6367 67.9861 79.542 70.9975 78.8744 73.9068C78.7096 74.2936 78.4394 74.6262 78.0945 74.8667C75.3005 77.2807 72.4966 79.6847 69.6826 82.0787L28.4075 117.115C27.9243 117.437 27.4972 117.836 27.1434 118.297C27.0305 118.507 26.9672 118.741 26.9582 118.979C26.9493 119.217 26.9951 119.455 27.092 119.673C27.2856 119.818 27.5094 119.917 27.7468 119.964C27.9842 120.011 28.2291 120.004 28.4633 119.943C28.648 119.889 28.8181 119.794 28.9603 119.664C29.1746 119.493 29.3889 119.274 29.5817 119.099L59.4196 93.8158C60.8551 92.5988 62.3035 91.399 63.8162 90.1306C63.8928 90.3343 63.9544 90.5434 64.0005 90.7562C64.0861 92.4102 64.6556 94.0027 65.6383 95.3358C66.6211 96.669 67.9737 97.6842 69.5284 98.2553C71.0641 98.9225 72.7662 99.108 74.4096 98.7874C76.053 98.4669 77.5606 97.6552 78.733 96.4598C80.7213 94.6472 82.684 92.8045 84.6552 90.9705C85.9407 89.792 87.1834 88.6093 88.5376 87.3366C88.7898 88.2162 88.9944 89.1089 89.1503 90.0106C89.3473 92.1094 89.0578 94.2253 88.3042 96.1941C87.5506 98.1628 86.3532 99.9313 84.8051 101.362C79.8386 106.71 74.7606 111.942 69.7255 117.217C69.3955 117.56 68.9413 117.843 68.7613 118.25C68.5813 118.657 68.4657 119.454 68.6799 119.626L68.7399 119.664C69.1892 119.883 69.6945 119.959 70.1883 119.883C70.3267 119.854 70.45 119.777 70.5354 119.664C70.6554 119.54 70.7711 119.386 70.8868 119.27C74.9663 115.053 79.0672 110.858 83.1168 106.611C84.7513 104.955 86.288 103.205 87.7191 101.371C89.5851 99.3049 90.8224 96.7492 91.2855 94.0042C91.7486 91.2591 91.4181 88.439 90.3331 85.8754C90.2164 85.3037 90.3304 84.7092 90.6502 84.2213C90.9287 83.7413 91.2372 83.2742 91.5543 82.8114C92.569 81.494 93.4141 80.0544 94.0698 78.5262C95.3368 74.7758 97.2817 71.2898 99.8076 68.2417C100.969 66.7695 101.768 65.0448 102.14 63.207C102.512 61.3692 102.447 59.4696 101.95 57.6616C101.775 56.9741 101.775 56.2535 101.95 55.5661C104.119 48.8512 106.351 42.1577 108.562 35.4599L111.519 26.4867L112.432 23.7142C114.377 23.7142 116.211 23.6756 118.037 23.7142C119.554 23.757 120.017 23.0457 120 21.5715C119.91 15.658 119.944 9.74866 119.944 3.83936ZM43.9371 65.1435C42.9791 66.0304 41.7647 66.591 40.4683 66.745C39.1719 66.8989 37.86 66.6383 36.7208 66.0006C35.587 65.5162 34.631 64.6925 33.9842 63.6429C33.3373 62.5932 33.0314 61.369 33.1084 60.1384C33.2457 58.6271 33.8732 57.202 34.8953 56.0803C41.5388 49.7455 48.7368 44.019 56.4028 38.9695C56.8212 38.6737 57.2972 38.4693 57.7998 38.3696C58.1369 38.3074 58.4825 38.3074 58.8196 38.3696C59.2234 38.4482 59.6086 38.6023 59.9552 38.8238C60.656 39.2588 61.2224 39.8796 61.5916 40.6171C61.9607 41.3547 62.1182 42.1802 62.0464 43.0019C61.9576 45.1413 61.2092 47.2009 59.9038 48.8983C55.237 54.9207 49.878 60.3733 43.9371 65.1435ZM66.2202 73.4097C65.4752 74.1758 64.4966 74.6724 63.4385 74.8213C62.3803 74.9703 61.3027 74.7631 60.3752 74.2324C59.3988 73.7249 58.5678 72.977 57.9605 72.0593C57.3533 71.1416 56.9897 70.0844 56.9042 68.9874C56.8047 68.0401 56.9263 67.0828 57.2594 66.1905C57.5925 65.2982 58.1281 64.4954 58.8239 63.8451C65.3288 57.8454 72.3078 52.3811 79.6929 47.5056C79.9157 47.3642 80.1214 47.2228 80.3657 47.0771C81.0107 46.6114 81.7923 46.3734 82.5875 46.4005C83.3826 46.4277 84.1462 46.7185 84.758 47.2271C85.35 47.7285 85.7688 48.4038 85.955 49.157C86.1412 49.9101 86.0852 50.7028 85.795 51.4223C84.8607 54.5342 83.1364 57.351 80.7899 59.5985C76.0633 64.3208 71.1482 68.8674 66.2288 73.3925L66.2202 73.4097ZM91.5501 78.7276C88.8175 83.319 85.3967 87.4638 81.407 91.0176C79.8872 92.4831 78.3088 93.8844 76.6718 95.2214C75.8049 95.9408 74.7625 96.417 73.6512 96.6013C72.5399 96.7856 71.3996 96.6714 70.3469 96.2704C69.2942 95.8694 68.3669 95.1959 67.6599 94.3189C66.9529 93.4419 66.4915 92.3928 66.323 91.279C66.2543 90.6597 66.3091 90.0329 66.4842 89.435C66.6592 88.837 66.9511 88.2796 67.3429 87.7951C73.1743 81.4627 79.8387 75.9515 87.1534 71.4128C87.2424 71.3783 87.3366 71.3594 87.432 71.3571L87.8605 71.7856C86.6606 73.0712 85.4265 74.2967 84.2738 75.6123C83.9272 76.1208 83.6396 76.6671 83.4167 77.2407C84.0509 77.4292 84.7923 77.9263 85.3065 77.7506C87.3763 77.0564 89.4117 76.2508 91.5929 75.3937L93.3541 74.7081C92.6942 76.1651 92.2228 77.4935 91.5586 78.7105L91.5501 78.7276ZM97.4336 67.8646C95.8352 69.8996 93.8317 71.5806 91.5501 72.8012C90.8444 73.1954 90.1202 73.564 89.3775 73.9068C90.1402 70.9885 90.903 68.2846 91.5501 65.5506L91.5758 65.4392C92.2106 62.7546 93.418 60.2389 95.1153 58.0644C96.1566 56.6974 97.3265 57.2416 98.5221 57.5373C99.6277 57.8073 99.9062 58.6172 99.9533 59.6799C100.129 62.6162 99.2372 65.5171 97.4422 67.8475L97.4336 67.8646ZM107.461 31.4404C104.984 38.9395 102.477 46.4386 100.06 53.9463C99.6062 55.3561 98.9892 55.6132 97.6565 54.7648L104.011 26.5124L104.988 22.1758L110.131 23.3799L109.098 26.5124L107.461 31.4404Z"
                fill="black" />
        </svg>
    </g>

    <g id="tailwindCssSvg">
        <svg viewBox="0 0 32 32" xmlns="http://www.w3.org/2000/svg" fill="#000000">
            <g id="SVGRepo_bgCarrier" stroke-width="0"></g>
            <g id="SVGRepo_tracerCarrier" stroke-linecap="round" stroke-linejoin="round"></g>
            <g id="SVGRepo_iconCarrier">
                <title>file_type_tailwind</title>
                <path
                    d="M9,13.7q1.4-5.6,7-5.6c5.6,0,6.3,4.2,9.1,4.9q2.8.7,4.9-2.1-1.4,5.6-7,5.6c-5.6,0-6.3-4.2-9.1-4.9Q11.1,10.9,9,13.7ZM2,22.1q1.4-5.6,7-5.6c5.6,0,6.3,4.2,9.1,4.9q2.8.7,4.9-2.1-1.4,5.6-7,5.6c-5.6,0-6.3-4.2-9.1-4.9Q4.1,19.3,2,22.1Z"
                    style="fill:#33cadb"></path>
            </g>
        </svg>
    </g>

    <g id="vscodeSvg">
        <svg viewBox="0 0 32 32" xmlns="http://www.w3.org/2000/svg" fill="#000000">
            <g id="SVGRepo_bgCarrier" stroke-width="0"></g>
            <g id="SVGRepo_tracerCarrier" stroke-linecap="round" stroke-linejoin="round"></g>
            <g id="SVGRepo_iconCarrier">
                <title>file_type_vscode</title>
                <path
                    d="M29.01,5.03,23.244,2.254a1.742,1.742,0,0,0-1.989.338L2.38,19.8A1.166,1.166,0,0,0,2.3,21.447c.025.027.05.053.077.077l1.541,1.4a1.165,1.165,0,0,0,1.489.066L28.142,5.75A1.158,1.158,0,0,1,30,6.672V6.605A1.748,1.748,0,0,0,29.01,5.03Z"
                    style="fill:#0065a9"></path>
                <path
                    d="M29.01,26.97l-5.766,2.777a1.745,1.745,0,0,1-1.989-.338L2.38,12.2A1.166,1.166,0,0,1,2.3,10.553c.025-.027.05-.053.077-.077l1.541-1.4A1.165,1.165,0,0,1,5.41,9.01L28.142,26.25A1.158,1.158,0,0,0,30,25.328V25.4A1.749,1.749,0,0,1,29.01,26.97Z"
                    style="fill:#007acc"></path>
                <path
                    d="M23.244,29.747a1.745,1.745,0,0,1-1.989-.338A1.025,1.025,0,0,0,23,28.684V3.316a1.024,1.024,0,0,0-1.749-.724,1.744,1.744,0,0,1,1.989-.339l5.765,2.772A1.748,1.748,0,0,1,30,6.6V25.4a1.748,1.748,0,0,1-.991,1.576Z"
                    style="fill:#1f9cf0"></path>
            </g>
        </svg>
    </g>

    <g id="webpackSvg">
        <svg viewBox="-17 0 290 290" version="1.1" xmlns="http://www.w3.org/2000/svg"
            xmlns:xlink="http://www.w3.org/1999/xlink" preserveAspectRatio="xMidYMid" fill="#000000">
            <g id="SVGRepo_bgCarrier" stroke-width="0"></g>
            <g id="SVGRepo_tracerCarrier" stroke-linecap="round" stroke-linejoin="round"></g>
            <g id="SVGRepo_iconCarrier">
                <g>
                    <polygon fill="#FFFFFF"
                        points="128 0.0483018868 256 72.4528302 256 217.310189 128 289.714717 0 217.310189 0 72.4528302">
                    </polygon>
                    <path
                        d="M233.153208,212.286792 L132.250566,269.427925 L132.250566,224.990189 L195.139623,190.357736 L233.153208,212.286792 Z M240.060377,206.055849 L240.060377,86.6535849 L203.157736,107.954717 L203.157736,184.754717 L240.060377,206.055849 Z M22.4603774,212.286792 L123.363019,269.379623 L123.363019,224.941887 L60.4739623,190.357736 L22.4603774,212.286792 L22.4603774,212.286792 Z M15.5532075,206.055849 L15.5532075,86.6535849 L52.4558491,107.954717 L52.4558491,184.754717 L15.5532075,206.055849 L15.5532075,206.055849 Z M19.8520755,78.925283 L123.363019,20.3833962 L123.363019,63.3720755 L57.0445283,99.84 L56.5132075,100.129811 L19.8520755,78.925283 L19.8520755,78.925283 Z M235.713208,78.925283 L132.250566,20.3833962 L132.250566,63.3720755 L198.520755,99.8883019 L199.052075,100.178113 L235.713208,78.925283 L235.713208,78.925283 Z"
                        fill="#8ED6FB"> </path>
                    <path
                        d="M123.363019,214.846792 L61.3433962,180.697358 L61.3433962,113.123019 L123.363019,148.914717 L123.363019,214.846792 L123.363019,214.846792 Z M132.250566,214.846792 L194.270189,180.74566 L194.270189,113.123019 L132.250566,148.914717 L132.250566,214.846792 Z M65.4973585,105.298113 L127.806792,71.0520755 L190.067925,105.298113 L127.806792,141.234717 L65.4973585,105.298113 L65.4973585,105.298113 Z"
                        fill="#1C78C0"> </path>
                </g>
            </g>
        </svg>
    </g>

    <g id="webstormSvg">
        <svg fill="#000000" viewBox="0 0 32 32" xmlns="http://www.w3.org/2000/svg">
            <g id="SVGRepo_bgCarrier" stroke-width="0"></g>
            <g id="SVGRepo_tracerCarrier" stroke-linecap="round" stroke-linejoin="round" stroke="#fcfcfc"
                stroke-width="6.4">
                <path
                    d="M0 0v32h32v-32zM23.855 3.855c1.921 0 3.552 0.588 4.885 1.703l-1.48 2.224c-1.187-0.817-2.296-1.333-3.405-1.333-1.115 0-1.709 0.516-1.709 1.183v0.072c0 0.891 0.595 1.188 2.819 1.781 2.667 0.74 4.145 1.704 4.145 4v0.073c0 2.667-2 4.145-4.812 4.145-2-0.072-4-0.812-5.557-2.219l1.703-2.077c1.188 0.963 2.443 1.629 3.927 1.629 1.183 0 1.849-0.443 1.849-1.255v-0.079c0-0.739-0.443-1.109-2.667-1.703-2.667-0.667-4.292-1.407-4.292-4.073v-0.077c0-2.443 1.923-4 4.589-4zM2.369 4.145h3.037l2 7.709 2.296-7.709h2.224l2.224 7.709 2-7.709h3.109l-3.776 13.261h-2.52l-2.147-7.704-2.224 7.704h-2.443zM3.036 26h12v2h-12z">
                </path>
            </g>
            <g id="SVGRepo_iconCarrier">
                <path
                    d="M0 0v32h32v-32zM23.855 3.855c1.921 0 3.552 0.588 4.885 1.703l-1.48 2.224c-1.187-0.817-2.296-1.333-3.405-1.333-1.115 0-1.709 0.516-1.709 1.183v0.072c0 0.891 0.595 1.188 2.819 1.781 2.667 0.74 4.145 1.704 4.145 4v0.073c0 2.667-2 4.145-4.812 4.145-2-0.072-4-0.812-5.557-2.219l1.703-2.077c1.188 0.963 2.443 1.629 3.927 1.629 1.183 0 1.849-0.443 1.849-1.255v-0.079c0-0.739-0.443-1.109-2.667-1.703-2.667-0.667-4.292-1.407-4.292-4.073v-0.077c0-2.443 1.923-4 4.589-4zM2.369 4.145h3.037l2 7.709 2.296-7.709h2.224l2.224 7.709 2-7.709h3.109l-3.776 13.261h-2.52l-2.147-7.704-2.224 7.704h-2.443zM3.036 26h12v2h-12z">
                </path>
            </g>
        </svg>
    </g>

    <g id="webstormSvg2">
        <svg viewBox="0 0 256 256" version="1.1" xmlns="http://www.w3.org/2000/svg"
            xmlns:xlink="http://www.w3.org/1999/xlink" preserveAspectRatio="xMidYMid" fill="#000000">
            <g id="SVGRepo_bgCarrier" stroke-width="0"></g>
            <g id="SVGRepo_tracerCarrier" stroke-linecap="round" stroke-linejoin="round"></g>
            <g id="SVGRepo_iconCarrier">
                <defs>
                    <linearGradient x1="41.7030965%" y1="1.92488263%" x2="71.8761384%" y2="95.2347418%"
                        id="linearGradient-1">
                        <stop stop-color="#00CDD7" offset="28%"> </stop>
                        <stop stop-color="#2086D7" offset="94%"> </stop>
                    </linearGradient>
                    <linearGradient x1="22.4892241%" y1="15.1271186%" x2="82.8771552%" y2="84.7627119%"
                        id="linearGradient-2">
                        <stop stop-color="#FFF045" offset="14%"> </stop>
                        <stop stop-color="#00CDD7" offset="37%"> </stop>
                    </linearGradient>
                    <linearGradient x1="11171%" y1="-27691.7984%" x2="11907%" y2="-28759.6256%" id="linearGradient-3">
                        <stop stop-color="#00CDD7" offset="28%"> </stop>
                        <stop stop-color="#2086D7" offset="94%"> </stop>
                    </linearGradient>
                </defs>
                <g>
                    <polygon fill="url(#linearGradient-1)"
                        points="34.4 231.2 0 26.8 64 0.4 104.4 24.4 142 4.4 219.6 34.4 176 256"> </polygon>
                    <polygon fill="url(#linearGradient-2)"
                        points="256 86.8 222.8 5.2 163.2 0 70.4 88.8 95.2 203.6 142 236 256 168.4 228 116"> </polygon>
                    <polygon fill="url(#linearGradient-3)" points="204.8 74.4 228 116 256 86.8 235.6 36"> </polygon>
                    <rect fill="#000000" x="48" y="48" width="160" height="160"> </rect>
                    <path
                        d="M63.2,178 L123.2,178 L123.2,188 L63.2,188 L63.2,178 Z M141.6,125.6 L150,115.2 C156,120 162,123.2 169.6,123.2 C175.6,123.2 179.2,120.8 179.2,116.8 C179.2,113.2 176.8,111.2 166,108.4 C152.8,104.8 144.4,101.2 144.4,88 L144.4,87.6 C144.4,75.6 154,67.6 167.2,67.6 C176.04879,67.5627811 184.649333,70.5236236 191.6,76 L184,87.2 C179.170815,83.4261245 173.316089,81.1957528 167.2,80.8 C162,80.8 158.8,83.2 158.8,86.8 C158.8,91.2 161.6,92.8 172.8,95.6 C186,99.2 193.6,104 193.6,115.6 C193.6,128.8 183.6,136.4 169.6,136.4 C159.323641,136.02223 149.468301,132.220884 141.6,125.6 Z M128.8,68.8 L118.8,107.2 L107.6,68.8 L96.4,68.8 L85.2,107.2 L75.2,68.8 L59.6,68.8 L78.8,135.2 L91.2,135.2 L102,96.8 L112.8,135.2 L125.2,135.2 L144.4,68.8 L128.8,68.8 Z"
                        fill="#FFFFFF">
                    </path>
                </g>
            </g>
        </svg>
    </g>
    <g id="arrow-up">

    </g>

    <g id="arrow-down">

    </g>

    <g id="arrow-left">

    </g>

    <g id="arrow-right">

    </g>


    <g id="viteSvg">
        <svg version="1.0" xmlns="http://www.w3.org/2000/svg" width="640pt" height="640pt"
            viewBox="0 0 640.000000 640.000000" preserveAspectRatio="xMidYMid meet">

            <g transform="translate(0.000000,640.000000) scale(0.100000,-0.100000)" fill="#000000" stroke="none">
                <path
                    d="M5137 4753 c-245 -181 -446 -334 -447 -341 0 -15 -58 -131 -826 -1658 -635 -1261 -615 -1226 -671 -1194 -14 8 -31 22 -36 31 -7 12 20 164 102 560 61 299 113 554 116 565 5 29 -21 64 -48 64 -12 0 -92 -20 -178 -46 -239 -72 -247 -65 -200 166 17 84 28 156 25 161 -3 5 -1 9 4 9 5 0 13 21 17 46 3 26 9 53 12 62 4 10 -2 8 -18 -6 -13 -11 -208 -156 -434 -322 -225 -166 -412 -305 -413 -311 -5 -14 967 -1720 1000 -1754 25 -26 35 -30 83 -30 45 0 59 4 79 25 13 14 322 558 686 1210 364 652 877 1570 1140 2040 263 470 485 869 494 887 20 40 21 97 1 113 -9 7 -13 15 -11 18 5 4 -18 32 -27 32 -2 0 -205 -147 -450 -327z" />
            </g>
        </svg>
    </g>

    <g id="telegram">
        <svg viewBox="0 0 32 32" fill="none" xmlns="http://www.w3.org/2000/svg">
            <g id="SVGRepo_bgCarrier" stroke-width="0"></g>
            <g id="SVGRepo_tracerCarrier" stroke-linecap="round" stroke-linejoin="round"></g>
            <g id="SVGRepo_iconCarrier">
                <circle cx="16" cy="16" r="14" fill="url(#paint0_linear_87_7225)"></circle>
                <path
                    d="M22.9866 10.2088C23.1112 9.40332 22.3454 8.76755 21.6292 9.082L7.36482 15.3448C6.85123 15.5703 6.8888 16.3483 7.42147 16.5179L10.3631 17.4547C10.9246 17.6335 11.5325 17.541 12.0228 17.2023L18.655 12.6203C18.855 12.4821 19.073 12.7665 18.9021 12.9426L14.1281 17.8646C13.665 18.3421 13.7569 19.1512 14.314 19.5005L19.659 22.8523C20.2585 23.2282 21.0297 22.8506 21.1418 22.1261L22.9866 10.2088Z"
                    fill="white"></path>
                <defs>
                    <linearGradient id="paint0_linear_87_7225" x1="16" y1="2" x2="16" y2="30"
                        gradientUnits="userSpaceOnUse">
                        <stop stop-color="#37BBFE"></stop>
                        <stop offset="1" stop-color="#007DBB"></stop>
                    </linearGradient>
                </defs>
            </g>
        </svg>
    </g>
</svg>